<svg width="51" height="58" viewBox="0 0 51 58" fill="none" xmlns="http://www.w3.org/2000/svg">
<path fill-rule="evenodd" clip-rule="evenodd" d="M25.602 3.80182C25.7554 3.81462 25.9472 3.84875 26.0282 3.87861C26.1091 3.90421 30.7967 6.58769 36.4474 9.83432C44.1606 14.2712 46.7644 15.79 46.9135 15.9351C47.02 16.0417 47.1735 16.2508 47.3993 16.6817L47.4206 36.9038L47.28 36.6905C47.199 36.571 44.6762 32.6375 41.6677 27.9446C38.6591 23.2517 36.1874 19.3993 36.1747 19.3822C36.1619 19.3652 35.2116 20.948 34.061 22.9019C32.9104 24.8516 31.9729 26.477 31.9771 26.5154C31.9771 26.5496 34.4317 30.5428 37.4233 35.3893C40.4148 40.2358 42.8609 44.2034 42.8523 44.2077C42.8438 44.2119 42.3878 44.4764 41.8381 44.7964C41.2884 45.1121 40.8367 45.3681 40.8324 45.3638C40.8324 45.3553 38.5014 41.6778 35.6548 37.1897C32.8081 32.7015 30.4686 29.0453 30.4558 29.0624C30.4388 29.0837 29.3563 30.9097 28.0523 33.1282C26.7441 35.3466 25.6744 37.1811 25.6744 37.2025C25.6702 37.2238 27.4387 40.0225 29.5993 43.4184C31.7598 46.8186 33.524 49.6045 33.5198 49.613C33.5113 49.6216 31.8493 50.5943 29.8208 51.7675C27.7924 52.945 26.0665 53.9262 25.9855 53.9476C25.9046 53.9732 25.7213 53.9902 25.5807 53.9902C25.4401 53.9902 25.244 53.9689 25.1418 53.9476C25.0352 53.922 23.1858 52.881 20.5735 51.375C18.1573 49.9885 16.1842 48.8408 16.1842 48.828C16.18 48.8152 20.3903 41.6607 25.5381 32.9234C30.6817 24.1903 34.892 17.0315 34.892 17.0145C34.892 16.9931 33.0255 16.9974 30.7498 17.0145C27.6475 17.0401 26.5907 17.0614 26.5566 17.0998C26.531 17.1296 22.2994 24.1135 7.78916 48.1028L6.70249 47.4714C6.10163 47.1258 5.61583 46.8357 5.61583 46.8229C5.62009 46.8101 9.79631 40.0993 14.9015 31.9123C20.0067 23.721 24.1787 17.0187 24.1787 17.0145C24.1744 17.0102 23.352 16.9846 22.342 16.9547C20.9272 16.9163 20.3604 16.9163 19.8491 16.9547C19.4868 16.9846 18.9669 17.0443 18.6985 17.0913C18.43 17.1382 17.9868 17.232 17.7183 17.3046C17.4499 17.3771 17.0237 17.5179 16.768 17.6245C16.5166 17.7269 16.1714 17.889 16.001 17.9872C15.8348 18.081 15.5706 18.2474 15.4172 18.3541C15.2637 18.465 14.9697 18.7295 14.7566 18.9428C14.3901 19.3182 14.1217 19.7278 9.04629 27.6076C6.11442 32.1555 3.68539 35.914 3.64704 35.961C3.57885 36.0463 3.57459 35.4661 3.56181 26.5794C3.55328 19.0409 3.56181 17.0529 3.60442 16.831C3.63425 16.6774 3.71096 16.4684 3.77062 16.3617C3.83454 16.2551 3.94534 16.1057 4.01778 16.0247C4.08597 15.9479 4.30756 15.7858 4.50785 15.6663C4.70814 15.5511 9.24232 12.9188 14.5862 9.82153C19.93 6.72421 24.4258 4.12179 24.5793 4.03646C24.7327 3.95114 24.9628 3.86154 25.0906 3.83168C25.2227 3.80182 25.4443 3.78902 25.602 3.80182Z" fill="#2D374C"/>
<path d="M31.9595 26.4755C31.968 26.4542 32.9098 24.8458 34.0561 22.8961C35.2024 20.9464 36.1485 19.3551 36.1527 19.3594C36.1613 19.3636 38.7053 23.3313 47.4669 36.9876L47.4541 38.9501L47.4539 38.9749C47.437 40.8703 47.4366 40.9179 47.339 41.1686C47.2879 41.3093 47.1728 41.5184 47.0876 41.6336C46.9683 41.7914 46.8149 41.9109 46.4825 42.1071C46.2353 42.2522 45.3276 42.7812 44.4668 43.2846C43.1032 44.0782 42.8901 44.1891 42.8432 44.1336C42.8134 44.0995 40.3503 40.1191 37.3672 35.2896C34.3885 30.4645 31.9552 26.4969 31.9595 26.4755Z" fill="#28A0F0"/>
<path d="M27.4125 34.2145C28.3671 32.5934 29.4452 30.7674 29.8117 30.1488C30.1782 29.5302 30.4893 29.0396 30.5063 29.0609C30.5191 29.0779 32.8459 32.7469 35.6755 37.2095C38.5008 41.6762 40.8148 45.341 40.8148 45.358C40.8148 45.3794 39.1826 46.3393 37.184 47.4954C34.2734 49.1849 33.5405 49.5902 33.5021 49.5433C33.4765 49.5134 31.7038 46.7318 29.5645 43.3657C27.421 39.9996 25.6696 37.2223 25.6738 37.2009C25.6738 37.1753 26.4579 35.8315 27.4125 34.2145Z" fill="#28A0F0"/>
<path d="M18.8261 17.0631C19.0732 17.029 19.4653 16.9778 19.6997 16.9565C19.9341 16.9394 20.7778 16.9309 21.5747 16.9437C22.3716 16.9565 23.2836 16.9778 24.1785 17.0205L16.9212 28.6674C12.9282 35.0753 8.74776 41.7862 5.59428 46.8502L0.0117889 43.6335L0.003266 42.5626C-0.00525689 41.9696 0.003266 41.4961 0.0245732 41.5046C0.041619 41.5174 0.83851 40.3228 1.79307 38.851C2.74764 37.3791 5.96929 32.3876 8.9523 27.7629C12.8643 21.6878 14.4496 19.2602 14.6541 19.0384C14.8075 18.8678 15.0973 18.6032 15.2976 18.4497C15.4979 18.2961 15.826 18.0828 16.022 17.9761C16.2138 17.8694 16.576 17.6988 16.8232 17.5964C17.0704 17.4983 17.5178 17.3532 17.8246 17.2764C18.1315 17.1996 18.5789 17.1015 18.8261 17.0631Z" fill="white"/>
<path d="M26.5691 17.0631L28.376 17.0418C29.3689 17.029 31.2439 17.0162 32.5352 17.0077C33.8306 17.0034 34.8917 17.0077 34.8917 17.0205C34.8917 17.0333 30.6857 24.1793 25.5464 32.9038C20.4028 41.624 15.7919 49.4484 15.2976 50.2846C14.799 51.125 14.3942 51.8332 14.3942 51.8546C14.3942 51.8759 14.3856 51.8972 14.3729 51.8972C14.3601 51.8972 12.8771 51.0482 11.0702 50.0115C9.26765 48.9706 7.78893 48.113 7.78893 48.1002C7.78893 48.0874 12.0163 41.0993 26.5691 17.0631Z" fill="white"/>
<path d="M23.8972 0.472315C24.0975 0.408321 24.4299 0.331528 24.643 0.297398C24.8986 0.254735 25.2225 0.241936 25.6231 0.254735C25.981 0.263267 26.3731 0.30593 26.6032 0.352859C26.8163 0.399788 27.1572 0.502179 27.3703 0.583238C27.6473 0.685628 30.6345 2.3836 38.1944 6.7352C43.9388 10.0416 48.7713 12.8445 48.9332 12.9682C49.0951 13.0919 49.3806 13.3522 49.5682 13.5484C49.7514 13.7447 50.0028 14.0604 50.1307 14.2481C50.2542 14.4358 50.4204 14.7345 50.5057 14.9094C50.5866 15.0843 50.6974 15.3744 50.7571 15.5493C50.8168 15.7242 50.8935 16.0527 50.9318 16.2746C50.9957 16.6415 51 17.8019 51 28.8601C51 39.466 50.9915 41.0915 50.9361 41.437C50.902 41.6504 50.821 41.9874 50.7614 42.1836C50.6974 42.3756 50.5824 42.6785 50.4972 42.8535C50.4119 43.0284 50.2287 43.3441 50.088 43.5574C49.9474 43.7707 49.6576 44.112 49.0525 44.7093L38.3051 50.938C32.3903 54.3638 27.4939 57.1924 27.4214 57.2265C27.3447 57.2564 27.1018 57.3289 26.8802 57.3844C26.6586 57.4441 26.2751 57.5081 26.0279 57.5294C25.7637 57.5508 25.3887 57.5508 25.1117 57.5294C24.856 57.5081 24.4512 57.4398 24.2168 57.3844C23.9654 57.3204 23.6159 57.1881 23.3645 57.0644C23.1301 56.9449 21.0207 55.7461 18.6769 54.3937C16.3331 53.0456 14.4112 51.9107 14.407 51.8766C14.3984 51.8425 14.7905 51.1385 16.1627 48.8262L16.2905 48.9073C16.363 48.95 18.3403 50.0933 20.6926 51.4457C23.2281 52.9048 25.035 53.9202 25.1458 53.9458C25.2438 53.9671 25.4484 53.9842 25.6018 53.9842C25.7552 53.9842 25.947 53.9628 26.0279 53.933C26.1089 53.9031 29.484 51.9619 33.5281 49.6155C37.5722 47.2733 41.8294 44.8074 42.9885 44.1333C44.1476 43.4635 45.507 42.6743 46.0098 42.3799C46.7897 41.9277 46.9431 41.821 47.0837 41.6376C47.1732 41.5224 47.2883 41.3091 47.4332 40.9123L47.4246 28.8814C47.4161 22.2644 47.4033 16.8036 47.3906 16.7439C47.3778 16.6841 47.3096 16.522 47.2371 16.3812C47.1647 16.2405 47.0198 16.0399 46.9133 15.9333C46.7641 15.7882 44.4928 14.4614 37.8534 10.6431C32.9783 7.84016 28.3376 5.16948 27.5407 4.70872C26.1899 3.93226 26.0705 3.87253 25.7722 3.82134C25.5251 3.77867 25.393 3.77867 25.1756 3.81707C25.0137 3.84267 24.7751 3.93226 24.6003 4.02612C24.4384 4.11571 19.9298 6.7224 14.5859 9.81971C9.24208 12.917 4.7079 15.5493 4.50762 15.6645C4.30733 15.784 4.08573 15.9461 4.01755 16.0229C3.9451 16.1039 3.83431 16.2533 3.77038 16.3599C3.71072 16.4666 3.63402 16.6756 3.60419 16.8292C3.56157 17.051 3.55305 19.0178 3.5914 36.0914L2.47064 37.8192C1.85273 38.7706 1.05584 39.9908 0.702143 40.5369C0.344182 41.0829 0.041619 41.5138 0.0245732 41.4968C0.003266 41.4797 -0.00525689 35.8312 0.003266 28.9454C0.0160503 17.2516 0.0203118 16.4026 0.0884949 16.1253C0.131109 15.9589 0.203554 15.7029 0.25043 15.5493C0.301567 15.3957 0.416626 15.1184 0.506117 14.9307C0.595607 14.743 0.766065 14.4358 0.889647 14.2481C1.01323 14.0604 1.29875 13.7234 1.52034 13.4972C1.7462 13.2754 2.07433 12.9938 2.24905 12.8744C2.42377 12.7592 2.70076 12.5885 2.86696 12.4989C3.03315 12.4051 4.89115 11.33 7.00056 10.1098C9.10998 8.8854 13.576 6.29151 16.9297 4.35036C20.2835 2.40494 23.1387 0.762421 23.2793 0.698427C23.4199 0.634433 23.6969 0.532043 23.8972 0.472315Z" fill="#96BEDC"/>
</svg>
