<svg width="52" height="52" viewBox="0 0 52 52" fill="none" xmlns="http://www.w3.org/2000/svg">
<path d="M51.934 24.2366C50.9607 9.90879 38.5587 -0.91244 24.2352 0.0608301C17.0999 0.547031 10.8339 3.8707 6.46065 8.84972L6.44765 8.84105C6.41645 8.88092 6.38958 8.92079 6.36271 8.96065C2.01982 13.9709 -0.424183 20.6278 0.0611508 27.7648C0.106218 28.446 0.185951 29.1133 0.283886 29.7755C0.283886 29.8075 0.292552 29.8335 0.296886 29.8647C0.363619 30.3007 0.439886 30.7375 0.523953 31.1647C0.603639 31.5597 0.692642 31.9528 0.790887 32.3434C3.79477 44.3173 15.0121 52.7977 27.7643 51.9301C42.0878 50.956 52.9133 38.5548 51.9392 24.2279L51.934 24.2366ZM46.2746 24.6231C46.3951 26.3859 46.2833 28.1123 45.9678 29.7763C45.9678 29.7677 45.9592 29.759 45.9592 29.7495C44.0716 25.144 40.3432 21.816 37.068 19.9778C37.731 12.1734 35.0833 8.88092 32.0847 8.34705C31.5036 8.2379 30.9064 8.24868 30.3297 8.37873C29.7529 8.50877 29.2088 8.75534 28.7309 9.10329C28.2529 9.45123 27.851 9.89321 27.55 10.4021C27.2491 10.911 27.0554 11.476 26.9808 12.0625C26.9078 12.6282 26.947 13.2028 27.0963 13.7534C27.2456 14.3039 27.5021 14.8196 27.851 15.2709C28.2 15.7222 28.6344 16.1002 29.1295 16.3834C29.6248 16.6665 30.1711 16.8492 30.737 16.921C30.9459 16.9479 31.1504 16.9565 31.3506 16.9522C31.3651 17.2308 31.3727 17.5096 31.3731 17.7885C28.6006 17.1039 26.011 16.9652 23.6485 17.1793C22.7599 17.2376 21.8759 17.349 21.0008 17.5129C21.2954 14.8783 22.287 11.9151 24.2049 9.75279C26.0596 7.65718 28.819 6.46031 31.8264 6.76711C32.3967 6.82518 33.0059 6.96731 33.5528 7.15018C33.5797 7.15885 33.6065 7.16751 33.6291 7.17185C40.5971 10.0111 45.7278 16.6272 46.2703 24.6231H46.2746ZM28.1517 28.5925C28.1517 28.5925 28.1517 28.5968 28.1474 28.6011C27.49 29.5458 26.7451 30.4266 25.9226 31.2315C24.6768 29.9157 23.6223 28.4313 22.7896 26.8219C22.7498 26.7369 22.7056 26.6615 22.6648 26.5766V26.5679C22.1769 25.5249 21.7867 24.439 21.4991 23.324C23.3452 22.8881 25.1565 22.7277 26.8881 22.8127L27.1637 22.8257H27.1724C28.2583 22.9149 29.3885 23.1151 30.5585 23.4358C30.0153 25.2621 29.2058 26.998 28.156 28.5881L28.1517 28.5925ZM19.27 6.82085L19.257 6.83818C16.2089 10.772 15.1941 15.6617 15.2391 19.417C8.14632 22.7451 6.62445 26.6832 7.65665 29.5484C7.68265 29.629 7.71472 29.7044 7.74592 29.7807C8.19063 30.843 9.03888 31.6852 10.1043 32.1224C11.1697 32.5594 12.3651 32.5558 13.4278 32.112C14.4901 31.6672 15.3324 30.8189 15.7695 29.7536C16.2067 28.6882 16.2029 27.4929 15.7591 26.4301C15.6784 26.2414 15.5848 26.0583 15.4792 25.8824C15.7019 25.7351 15.942 25.5895 16.2003 25.4378C16.9915 28.1834 18.1624 30.5017 19.5283 32.4414C20.0223 33.1754 20.5562 33.8826 21.1386 34.5638C18.7093 35.6272 15.6482 36.2504 12.8133 35.6714C10.0729 35.1116 7.65665 33.3228 6.41558 30.5633C6.17783 30.022 5.99884 29.457 5.88171 28.8776C5.80852 28.3799 5.75359 27.8799 5.71704 27.3783C5.08437 18.065 10.8607 9.77532 19.27 6.82085ZM27.3769 46.2751C21.8467 46.653 16.6761 44.7671 12.7691 41.4114C17.6996 42.0839 22.443 40.517 25.6739 38.5999C32.1029 43.0806 36.2767 42.4306 38.2432 40.1036C38.6284 39.6544 38.9179 39.1314 39.0936 38.5663C39.2694 38.0013 39.3279 37.4063 39.2652 36.8178C39.2028 36.2296 39.0208 35.6599 38.7303 35.1445C38.4397 34.629 38.0469 34.1784 37.5759 33.8202C37.1222 33.4744 36.6048 33.2214 36.0531 33.0755C35.5017 32.9297 34.9267 32.894 34.3614 32.9705C33.7961 33.0469 33.2514 33.2339 32.7585 33.521C32.2654 33.8081 31.8338 34.1896 31.4884 34.6436C31.3645 34.8082 31.2527 34.9868 31.1547 35.1644C30.919 35.044 30.6694 34.9105 30.4163 34.764C32.2277 32.8951 33.7123 30.7351 34.8077 28.3741C35.1999 27.575 35.5446 26.7534 35.8399 25.9136C37.9763 27.4892 40.0494 29.8249 40.9663 32.5696C41.852 35.2216 41.5132 38.2116 39.7426 40.6643C39.3926 41.1401 38.9929 41.5771 38.55 41.9678L38.5327 41.9851C35.3329 44.5054 31.4459 45.9993 27.3821 46.2708L27.3769 46.2751Z" fill="url(#paint0_linear_14281_10304)"/>
<path style="mix-blend-mode:overlay" opacity="0.9" d="M32.0854 8.34755C31.5977 8.25495 31.0974 8.24907 30.6077 8.33022C33.0959 9.68222 34.9064 13.4514 33.9548 20.8909C33.6398 23.3102 32.9289 25.6615 31.8505 27.8503C30.9212 29.8475 29.712 31.702 28.259 33.358C28.9478 33.876 29.6685 34.3501 30.417 34.7776C32.2288 32.909 33.7134 30.7491 34.8093 28.3885C35.8901 26.2008 36.6012 23.8491 36.9136 21.4291C38.0489 12.5743 35.2635 8.91695 32.0862 8.35102L32.0854 8.34755Z" fill="url(#paint1_radial_14281_10304)"/>
<g style="mix-blend-mode:overlay" opacity="0.8">
<path d="M33.9525 20.8818C34.905 13.4458 33.0936 9.67318 30.6063 8.32031C30.5083 8.33331 30.4156 8.35585 30.3168 8.37838C32.7513 9.77978 34.5037 13.5437 33.5651 20.8818C33.25 23.3013 32.5392 25.6526 31.4608 27.8411C30.5653 29.7677 29.4077 31.5615 28.021 33.1711C28.1007 33.2335 28.177 33.2916 28.2567 33.3488C29.7084 31.6919 30.9174 29.8373 31.8473 27.8402C32.9285 25.6526 33.6398 23.3019 33.9525 20.8818Z" fill="white"/>
</g>
<path style="mix-blend-mode:overlay" opacity="0.5" d="M24.497 37.7474C24.2613 37.5697 24.0386 37.3825 23.8124 37.1953C20.1411 38.7267 15.0547 39.687 10.0002 38.5126C10.8234 39.567 11.7489 40.537 12.7632 41.4091C17.6937 42.0816 22.437 40.5147 25.6679 38.5976C25.2707 38.32 24.879 38.0351 24.4927 37.743L24.497 37.7474Z" fill="url(#paint2_radial_14281_10304)"/>
<path style="mix-blend-mode:overlay" opacity="0.6" d="M23.8174 37.2018C23.7064 37.1082 23.5912 37.0155 23.4846 36.9219C19.7865 38.3987 14.674 39.2844 9.63257 38.0251C9.75737 38.1898 9.88217 38.3588 10.0061 38.5191C15.0571 39.6935 20.1461 38.7332 23.8174 37.2018Z" fill="url(#paint3_linear_14281_10304)"/>
<path style="mix-blend-mode:overlay" opacity="0.9" d="M7.66086 29.5526C7.68686 29.6323 7.71893 29.7086 7.75013 29.784C7.9148 30.1758 8.128 30.5268 8.38626 30.8431C8.3152 28.0134 10.6734 24.5554 17.5877 21.6633C19.8404 20.7264 22.232 20.1671 24.6667 20.008C26.8615 19.8123 29.0733 19.9322 31.2343 20.3642C31.3461 19.4299 31.3903 18.558 31.3816 17.7876C28.8577 17.1522 26.2449 16.9462 23.6527 17.1783C21.2178 17.3378 18.8259 17.8971 16.5728 18.8336C8.33773 22.2778 6.56192 26.5184 7.66173 29.5569L7.66086 29.5526Z" fill="url(#paint4_radial_14281_10304)"/>
<g style="mix-blend-mode:overlay" opacity="0.8">
<path d="M17.5888 21.6707C10.6745 24.5636 8.3154 28.0208 8.38733 30.8504C8.44973 30.9258 8.51647 30.9978 8.5832 31.0688C8.578 28.2608 10.9631 24.8618 17.7846 22.0043C20.0373 21.0674 22.429 20.5081 24.8637 20.349C26.9801 20.1618 29.1121 20.2668 31.1999 20.661C31.2138 20.5633 31.2257 20.4654 31.2354 20.3672C29.0742 19.9377 26.8626 19.8181 24.6678 20.0118C22.2333 20.1714 19.8416 20.7307 17.5888 21.6672V21.6707Z" fill="white"/>
</g>
<path style="mix-blend-mode:overlay" opacity="0.4" d="M36.9216 21.4187C36.8869 21.7125 36.8375 21.9968 36.7881 22.2862C39.9471 24.6982 43.3245 28.6268 44.8377 33.5876C45.3378 32.3463 45.7148 31.0589 45.9635 29.7439C44.0811 25.1384 40.3527 21.8139 37.0776 19.9766C37.0377 20.4446 36.9883 20.9204 36.9259 21.4187H36.9216Z" fill="url(#paint5_radial_14281_10304)"/>
<path style="mix-blend-mode:overlay" opacity="0.5" d="M36.7872 22.2891C36.7603 22.4312 36.7378 22.5785 36.7109 22.7207C39.8396 25.1855 43.1633 29.1687 44.5916 34.165C44.6756 33.9744 44.7562 33.782 44.8316 33.5913C43.3193 28.6296 39.9462 24.7053 36.782 22.2891H36.7872Z" fill="url(#paint6_linear_14281_10304)"/>
<path style="mix-blend-mode:overlay" opacity="0.9" d="M38.2441 40.104C38.5656 39.7253 38.8213 39.2952 39.0007 38.8318C36.5844 40.3086 32.414 39.9931 26.4478 35.4492C24.5082 33.9678 22.8273 32.1755 21.4731 30.1451C20.206 28.3427 19.2034 26.368 18.4961 24.2812C17.6329 24.6505 16.8546 25.0509 16.1873 25.4426C16.9005 27.9457 18.0284 30.3115 19.5239 32.4418C20.8586 34.4352 22.5227 36.2378 24.4987 37.7458C31.6002 43.1564 36.1615 42.5732 38.2389 40.1032L38.2441 40.104Z" fill="url(#paint7_radial_14281_10304)"/>
<g style="mix-blend-mode:overlay" opacity="0.8">
<path d="M26.4531 35.4438C32.415 39.986 36.5888 40.3023 39.0042 38.8246C39.0398 38.7319 39.071 38.6383 39.0978 38.549C36.6686 39.96 32.5302 39.5899 26.6481 35.1101C24.7087 33.6285 23.0278 31.8365 21.6734 29.8061C20.4532 28.0675 19.4785 26.1689 18.7771 24.1641C18.6835 24.2039 18.5951 24.2395 18.5059 24.2793C19.2129 26.3663 20.2151 28.3412 21.482 30.1441C22.8166 32.1374 24.4806 33.9401 26.4566 35.4481L26.4531 35.4438Z" fill="white"/>
</g>
<path style="mix-blend-mode:overlay" opacity="0.3" d="M16.5686 18.8257C16.8399 18.7139 17.1111 18.6116 17.3867 18.5093C17.8946 14.5669 19.6071 9.6771 23.1502 5.89062C21.8242 6.08129 20.5197 6.39329 19.2561 6.83356C16.2072 10.7674 15.1932 15.6571 15.2382 19.4133C15.6603 19.2139 16.1014 19.0172 16.5642 18.8265L16.5686 18.8257Z" fill="url(#paint8_radial_14281_10304)"/>
<path style="mix-blend-mode:overlay" opacity="0.4" d="M17.3857 18.5118C17.5244 18.4633 17.6579 18.4095 17.7957 18.361C18.3651 14.4177 20.1539 9.55045 23.7626 5.8125C23.5581 5.83503 23.3527 5.8619 23.1481 5.88877C19.6062 9.67958 17.8936 14.565 17.3866 18.5075L17.3857 18.5118Z" fill="url(#paint9_linear_14281_10304)"/>
<path style="mix-blend-mode:multiply" opacity="0.4" d="M24.2355 0.062517C17.0986 0.547853 10.8343 3.87154 6.46024 8.85055L6.3623 8.96149C7.21164 9.80736 9.99712 11.4714 11.1229 12.1656C13.3663 9.7487 16.1645 7.91457 19.2757 6.82168C19.4941 6.53655 19.7246 6.25661 19.9655 5.98534C22.9017 2.67033 26.911 0.921387 31.565 0.921387C32.0815 0.921387 33.1362 1.00632 33.1579 1.00632C30.2621 0.173257 27.2418 -0.145591 24.2355 0.062517Z" fill="url(#paint10_linear_14281_10304)"/>
<path style="mix-blend-mode:multiply" opacity="0.4" d="M27.3764 46.2789C21.8462 46.6568 16.6757 44.7709 12.7688 41.4161C12.4018 41.368 12.0367 41.3071 11.6742 41.2332C7.33562 40.3475 3.81175 37.7492 1.48906 33.7226C1.23331 33.2776 1.00017 32.82 0.790527 32.3516C3.79441 44.3255 15.0117 52.8067 27.7595 51.9383C27.8175 50.6262 27.4301 47.5789 27.372 46.2789H27.3764Z" fill="url(#paint11_linear_14281_10304)"/>
<path style="mix-blend-mode:multiply" opacity="0.4" d="M51.9342 24.2398C51.1334 24.1592 47.2353 24.4669 46.2751 24.6263C46.3947 26.3891 46.2837 28.1155 45.9674 29.7795C46.1009 30.1089 46.2298 30.4469 46.345 30.7892C47.7473 34.99 47.2576 39.3372 44.935 43.368C44.678 43.812 44.3989 44.2432 44.0986 44.6594C44.0986 44.6594 44.1116 44.6499 44.116 44.6412C49.3983 39.5018 52.4724 32.1689 51.9342 24.2441V24.2398Z" fill="url(#paint12_linear_14281_10304)"/>
<path style="mix-blend-mode:multiply" opacity="0.5" d="M31.8313 6.76257C32.4007 6.82063 33.01 6.96277 33.5577 7.14564C33.5837 7.1543 33.6114 7.16297 33.6331 7.1673C35.8652 8.0783 37.9184 9.37694 39.6981 11.0032C39.6981 11.0032 39.7067 11.0075 39.7111 11.0118C40.5656 10.0377 42.2071 8.96564 42.2071 8.96564C42.2071 8.96564 39.6937 6.39337 35.8448 5.59256C33.153 5.03183 27.0793 4.49363 23.2478 11.0118L23.2833 10.9772C23.5685 10.549 23.8666 10.1313 24.2089 9.74824C26.0645 7.65264 28.8231 6.4549 31.8313 6.76257Z" fill="url(#paint13_linear_14281_10304)"/>
<path style="mix-blend-mode:multiply" opacity="0.5" d="M39.7425 40.6713C39.3928 41.1471 38.9929 41.5842 38.55 41.9748C38.5327 41.9921 38.5101 42.0103 38.4919 42.0285C36.587 43.5049 34.4359 44.6331 32.1384 45.3609C32.134 45.3609 32.1297 45.3609 32.1245 45.3652C32.5431 46.5933 32.6497 48.5511 32.6497 48.5511C32.6497 48.5511 36.1337 47.6619 38.7511 44.7291C40.5797 42.6777 44.0854 37.6857 40.3561 31.1094C40.3561 31.1094 40.3613 31.131 40.37 31.1579C40.6014 31.6172 40.8103 32.0878 40.9706 32.5732C41.8563 35.2252 41.5175 38.2152 39.7469 40.667L39.7425 40.6713Z" fill="url(#paint14_linear_14281_10304)"/>
<path style="mix-blend-mode:multiply" opacity="0.5" d="M6.42585 30.5716C6.18774 30.0302 6.00846 29.4647 5.89112 28.8851C5.88678 28.8591 5.87812 28.8313 5.87378 28.8045C5.54445 26.4064 5.65105 23.9771 6.16325 21.637V21.6232C4.89011 21.3736 3.14204 20.4844 3.14204 20.4844C3.14204 20.4844 2.17137 23.9511 3.40464 27.6795C4.26785 30.2908 6.83492 35.8219 14.394 35.88C14.394 35.88 14.3723 35.8748 14.3455 35.8661C13.8341 35.8349 13.3228 35.782 12.8201 35.6798C10.0789 35.119 7.66259 33.3302 6.42065 30.5716H6.42585Z" fill="url(#paint15_linear_14281_10304)"/>
<path style="mix-blend-mode:multiply" opacity="0.6" d="M30.7379 16.9211C30.9468 16.9471 31.1513 16.9558 31.3515 16.9515C31.3515 16.9515 31.2137 14.2509 30.8844 12.8625C30.5507 11.4784 30.061 10.5572 29.5272 10.0372C29.1406 9.66363 27.9256 9.19997 26.9826 12.0565C26.9094 12.6222 26.9486 13.1969 27.0979 13.7475C27.2472 14.2981 27.5035 14.8138 27.8523 15.2652C28.2012 15.7166 28.6356 16.0947 29.1307 16.378C29.6258 16.6612 30.172 16.844 30.7379 16.9159V16.9211Z" fill="url(#paint16_linear_14281_10304)"/>
<path style="mix-blend-mode:multiply" opacity="0.5" d="M15.7656 26.4375C15.6845 26.249 15.5907 26.0663 15.4848 25.8906C15.4848 25.8906 13.2107 27.3588 12.1785 28.3372C11.1463 29.3166 10.5942 30.2023 10.4122 30.9268C10.2831 31.4477 10.4876 32.7295 13.4334 32.1194C14.4957 31.6748 15.338 30.8265 15.7751 29.761C16.2123 28.6956 16.2094 27.5002 15.7656 26.4375Z" fill="url(#paint17_linear_14281_10304)"/>
<path style="mix-blend-mode:multiply" opacity="0.6" d="M31.4933 34.6363C31.3685 34.801 31.2576 34.9795 31.1597 35.1563C31.1597 35.1563 33.5673 36.3896 34.9331 36.7944C36.299 37.2 37.3399 37.2355 38.0566 37.0301C38.5732 36.8836 39.5785 36.0603 37.58 33.8182C37.1263 33.4726 36.6091 33.2196 36.0577 33.0737C35.506 32.9281 34.9314 32.8924 34.3661 32.9689C33.8008 33.0454 33.2564 33.2323 32.7634 33.5194C32.2705 33.8065 31.8389 34.1878 31.4933 34.6415V34.6363Z" fill="url(#paint18_linear_14281_10304)"/>
<path style="mix-blend-mode:multiply" opacity="0.3" d="M30.5585 23.4375C30.0125 25.2532 29.2463 26.9042 28.3077 28.3584C28.2583 28.4338 28.2098 28.5101 28.1561 28.5898C28.1561 28.5898 28.1561 28.5942 28.1517 28.5985C27.4944 29.5432 26.7497 30.4239 25.927 31.2289C26.5233 31.8607 27.1637 32.4743 27.8718 33.0575C28.6759 33.69 29.5265 34.2611 30.4163 34.7657C32.2281 32.8972 33.7129 30.7375 34.8086 28.3766C35.2006 27.5774 35.5451 26.7553 35.84 25.9153C34.9239 25.2436 33.9983 24.7054 33.1446 24.3406C32.3031 23.98 31.4375 23.6782 30.5542 23.4375H30.5585Z" fill="url(#paint19_linear_14281_10304)"/>
<path style="mix-blend-mode:multiply" opacity="0.3" d="M12.7693 41.4175C17.6989 42.0891 22.4422 40.523 25.6732 38.6051C25.276 38.3278 24.8843 38.0429 24.498 37.7506C23.2693 36.8107 22.1421 35.7447 21.1353 34.5699C18.7052 35.6324 15.6441 36.2556 12.8092 35.6766C10.0688 35.1168 7.65252 33.328 6.41058 30.5694C6.17279 30.0279 5.9938 29.4626 5.87671 28.8828C6.59344 33.9104 9.12932 38.2974 12.765 41.4166L12.7693 41.4175Z" fill="url(#paint20_linear_14281_10304)"/>
<path style="mix-blend-mode:multiply" opacity="0.3" d="M25.928 31.2347C24.6825 29.9189 23.6282 28.435 22.7958 26.826C22.7559 26.7411 22.7109 26.6657 22.671 26.5807V26.5721C22.1831 25.529 21.7929 24.4431 21.5053 23.3281C20.6594 23.5283 19.81 23.7779 18.9555 24.0986C18.0069 24.4775 17.0877 24.9267 16.2056 25.4419C16.9977 28.1875 18.1677 30.5059 19.5336 32.4455C20.0276 33.1796 20.5623 33.8868 21.1456 34.568C22.1857 34.1138 23.1165 33.5756 23.8583 33.0192C24.5892 32.4704 25.2821 31.8726 25.9323 31.2304L25.928 31.2347Z" fill="url(#paint21_linear_14281_10304)"/>
<path style="mix-blend-mode:multiply" opacity="0.3" d="M19.2581 6.84109C16.21 10.7749 15.1951 15.6647 15.2402 19.4199C15.6795 19.2137 16.123 19.0166 16.5705 18.8289C17.9968 18.2331 19.4822 17.79 21.0018 17.5072C21.2965 14.8725 22.2879 11.9094 24.2059 9.74704C26.0605 7.65143 28.82 6.45369 31.8282 6.76136C32.3976 6.81943 33.0069 6.96156 33.5546 7.14443C33.5806 7.15309 33.6075 7.16176 33.63 7.16609C30.7748 6.00103 27.6905 5.50647 24.6141 5.72049C22.7455 5.84962 20.9567 6.22749 19.2659 6.82376C19.2615 6.82809 19.2572 6.83676 19.2529 6.84109H19.2581Z" fill="url(#paint22_linear_14281_10304)"/>
<path style="mix-blend-mode:multiply" opacity="0.3" d="M45.9641 29.7404C44.0782 25.1349 40.3489 21.806 37.0738 19.9688C37.0339 20.4368 36.9854 20.9169 36.9178 21.4196C36.7191 22.9524 36.3599 24.46 35.8457 25.9175C37.982 27.4931 40.0551 29.8288 40.9721 32.5744C41.8569 35.2264 41.5189 38.2164 39.7483 40.6682C39.3984 41.1442 38.9986 41.581 38.5558 41.9717L38.5384 41.989C42.3561 38.9904 45.0558 34.6657 45.9823 29.7716C45.9823 29.7629 45.9736 29.7534 45.9736 29.7447L45.9641 29.7404Z" fill="url(#paint23_linear_14281_10304)"/>
<path style="mix-blend-mode:multiply" opacity="0.3" d="M20.9872 20.6366C21.0961 21.543 21.2669 22.4409 21.4985 23.324C23.3453 22.8881 25.1558 22.7278 26.8874 22.8127L27.163 22.8257H27.1716C28.2576 22.915 29.3877 23.1152 30.5586 23.4358C30.8073 22.6038 31.017 21.7398 31.1678 20.8411C31.3325 19.7205 31.381 18.6831 31.3767 17.78C28.6051 17.0953 26.0155 16.9567 23.653 17.1707C22.7646 17.229 21.8804 17.3404 21.0054 17.5044C20.8806 18.6345 20.8754 19.7066 20.9915 20.6331L20.9872 20.6366Z" fill="url(#paint24_linear_14281_10304)"/>
<defs>
<linearGradient id="paint0_linear_14281_10304" x1="8.25725" y1="43.7436" x2="41.4066" y2="10.59" gradientUnits="userSpaceOnUse">
<stop stop-color="#E6007A"/>
<stop offset="0.21" stop-color="#703AC2"/>
<stop offset="0.46" stop-color="#0070EB"/>
<stop offset="0.77" stop-color="#0297FB"/>
<stop offset="1" stop-color="#0AE2FF"/>
</linearGradient>
<radialGradient id="paint1_radial_14281_10304" cx="0" cy="0" r="1" gradientUnits="userSpaceOnUse" gradientTransform="translate(33.4114 20.7392) scale(9.88697)">
<stop stop-color="white"/>
<stop offset="1" stop-color="white" stop-opacity="0"/>
</radialGradient>
<radialGradient id="paint2_radial_14281_10304" cx="0" cy="0" r="1" gradientUnits="userSpaceOnUse" gradientTransform="translate(18.7978 39.0734) scale(5.75328 5.7533)">
<stop stop-color="white"/>
<stop offset="1" stop-color="white" stop-opacity="0"/>
</radialGradient>
<linearGradient id="paint3_linear_14281_10304" x1="10.1664" y1="38.1057" x2="15.7114" y2="38.0295" gradientUnits="userSpaceOnUse">
<stop stop-color="white" stop-opacity="0"/>
<stop offset="1" stop-color="white"/>
</linearGradient>
<radialGradient id="paint4_radial_14281_10304" cx="0" cy="0" r="1" gradientUnits="userSpaceOnUse" gradientTransform="translate(17.7361 22.2093) rotate(-120) scale(9.88697)">
<stop stop-color="white"/>
<stop offset="1" stop-color="white" stop-opacity="0"/>
</radialGradient>
<radialGradient id="paint5_radial_14281_10304" cx="0" cy="0" r="1" gradientUnits="userSpaceOnUse" gradientTransform="translate(40.9269 25.694) rotate(-120) scale(5.75328)">
<stop stop-color="white"/>
<stop offset="1" stop-color="white" stop-opacity="0"/>
</radialGradient>
<linearGradient id="paint6_linear_14281_10304" x1="44.3966" y1="33.6563" x2="41.5582" y2="28.8931" gradientUnits="userSpaceOnUse">
<stop stop-color="white" stop-opacity="0"/>
<stop offset="1" stop-color="white"/>
</linearGradient>
<radialGradient id="paint7_radial_14281_10304" cx="0" cy="0" r="1" gradientUnits="userSpaceOnUse" gradientTransform="translate(26.3833 34.5946) rotate(120) scale(9.88697)">
<stop stop-color="white"/>
<stop offset="1" stop-color="white" stop-opacity="0"/>
</radialGradient>
<radialGradient id="paint8_radial_14281_10304" cx="0" cy="0" r="1" gradientUnits="userSpaceOnUse" gradientTransform="translate(18.272 13.2253) rotate(120) scale(5.75328)">
<stop stop-color="white"/>
<stop offset="1" stop-color="white" stop-opacity="0"/>
</radialGradient>
<linearGradient id="paint9_linear_14281_10304" x1="23.4281" y1="6.2363" x2="20.725" y2="11.0784" gradientUnits="userSpaceOnUse">
<stop stop-color="white" stop-opacity="0"/>
<stop offset="1" stop-color="white"/>
</linearGradient>
<linearGradient id="paint10_linear_14281_10304" x1="24.6368" y1="3.7736" x2="16.1643" y2="6.23841" gradientUnits="userSpaceOnUse">
<stop stop-color="#231F20"/>
<stop offset="1" stop-color="white"/>
</linearGradient>
<linearGradient id="paint11_linear_14281_10304" x1="8.63043" y1="36.0765" x2="15.7146" y2="43.4709" gradientUnits="userSpaceOnUse">
<stop stop-color="#231F20"/>
<stop offset="1" stop-color="white"/>
</linearGradient>
<linearGradient id="paint12_linear_14281_10304" x1="46.6484" y1="34.9674" x2="49.1132" y2="27.4742" gradientUnits="userSpaceOnUse">
<stop stop-color="#231F20"/>
<stop offset="1" stop-color="white"/>
</linearGradient>
<linearGradient id="paint13_linear_14281_10304" x1="28.4938" y1="8.06171" x2="39.8497" y2="10.6608" gradientUnits="userSpaceOnUse">
<stop stop-color="#231F20"/>
<stop offset="1" stop-color="white"/>
</linearGradient>
<linearGradient id="paint14_linear_14281_10304" x1="40.2885" y1="37.131" x2="32.3542" y2="45.6677" gradientUnits="userSpaceOnUse">
<stop stop-color="#231F20"/>
<stop offset="1" stop-color="white"/>
</linearGradient>
<linearGradient id="paint15_linear_14281_10304" x1="9.21653" y1="32.8119" x2="5.79318" y2="21.6761" gradientUnits="userSpaceOnUse">
<stop stop-color="#231F20"/>
<stop offset="1" stop-color="white"/>
</linearGradient>
<linearGradient id="paint16_linear_14281_10304" x1="30.978" y1="12.2524" x2="27.3874" y2="15.8482" gradientUnits="userSpaceOnUse">
<stop stop-color="#231F20"/>
<stop offset="1" stop-color="white"/>
</linearGradient>
<linearGradient id="paint17_linear_14281_10304" x1="11.6047" y1="28.5565" x2="16.5118" y2="29.8747" gradientUnits="userSpaceOnUse">
<stop stop-color="#231F20"/>
<stop offset="1" stop-color="white"/>
</linearGradient>
<linearGradient id="paint18_linear_14281_10304" x1="35.4133" y1="37.18" x2="34.0985" y2="32.2747" gradientUnits="userSpaceOnUse">
<stop stop-color="#231F20"/>
<stop offset="1" stop-color="white"/>
</linearGradient>
<linearGradient id="paint19_linear_14281_10304" x1="27.9429" y1="32.8166" x2="30.1009" y2="29.8405" gradientUnits="userSpaceOnUse">
<stop stop-color="#231F20"/>
<stop offset="1" stop-color="white"/>
</linearGradient>
<linearGradient id="paint20_linear_14281_10304" x1="20.5208" y1="31.5305" x2="16.2091" y2="33.5862" gradientUnits="userSpaceOnUse">
<stop stop-color="#231F20"/>
<stop offset="1" stop-color="white"/>
</linearGradient>
<linearGradient id="paint21_linear_14281_10304" x1="18.9555" y1="24.356" x2="20.2902" y2="27.1285" gradientUnits="userSpaceOnUse">
<stop stop-color="#231F20"/>
<stop offset="1" stop-color="white"/>
</linearGradient>
<linearGradient id="paint22_linear_14281_10304" x1="25.1627" y1="15.7938" x2="24.2414" y2="12.6122" gradientUnits="userSpaceOnUse">
<stop stop-color="#231F20"/>
<stop offset="1" stop-color="white"/>
</linearGradient>
<linearGradient id="paint23_linear_14281_10304" x1="35.1212" y1="30.3627" x2="37.7905" y2="30.9771" gradientUnits="userSpaceOnUse">
<stop stop-color="#231F20"/>
<stop offset="1" stop-color="white"/>
</linearGradient>
<linearGradient id="paint24_linear_14281_10304" x1="30.9321" y1="21.3446" x2="27.546" y2="20.7302" gradientUnits="userSpaceOnUse">
<stop stop-color="#231F20"/>
<stop offset="1" stop-color="white"/>
</linearGradient>
</defs>
</svg>
