<svg width="59" height="59" viewBox="0 0 59 59" fill="none" xmlns="http://www.w3.org/2000/svg">
<path d="M29.5 59C45.7924 59 59 45.7924 59 29.5C59 13.2076 45.7924 0 29.5 0C13.2076 0 0 13.2076 0 29.5C0 45.7924 13.2076 59 29.5 59Z" fill="#6ED34A"/>
<path fill-rule="evenodd" clip-rule="evenodd" d="M29.4428 11C30.1637 11 30.8159 11.0689 31.2164 11.1836C31.5596 11.2869 32.1546 11.5279 32.5322 11.7229C32.9098 11.9295 33.5392 12.4114 33.9282 12.8016C34.6377 13.5131 34.7292 13.6852 40.13 24.5063C43.1394 30.5537 45.7025 35.8094 45.8055 36.188C45.9199 36.6011 46 37.2782 46 37.8519C46 38.4257 45.9199 39.1142 45.8055 39.5158C45.7025 39.8945 45.4508 40.5142 45.2562 40.8929C45.0503 41.2715 44.5811 41.8912 44.2035 42.2699C43.8259 42.6486 43.208 43.119 42.8304 43.3256C42.4528 43.5207 41.8578 43.7617 41.5146 43.8649C40.9539 44.0256 39.6151 44.0485 29.5 44.0485C19.3849 44.0485 18.0461 44.0256 17.4854 43.8649C17.1422 43.7617 16.5472 43.5207 16.1696 43.3256C15.792 43.119 15.1741 42.6486 14.7965 42.2699C14.4189 41.8912 13.9497 41.2715 13.7438 40.8929C13.5492 40.5142 13.2975 39.8945 13.1945 39.5158C13.0801 39.1142 13 38.4257 13 37.8519C13 37.2782 13.0801 36.6011 13.1945 36.188C13.2975 35.8094 15.8606 30.5537 18.87 24.5063C24.0877 14.0524 24.3852 13.4901 25.0031 12.859C25.3693 12.4918 25.9185 12.0328 26.2389 11.8492C26.5479 11.6656 27.1429 11.4016 27.5548 11.2639C28.1269 11.0689 28.5617 11 29.4428 11V11ZM26.7996 14.8442C26.6051 15.0966 24.042 20.0998 21.1127 25.9751C17.6227 32.975 15.7576 36.8421 15.689 37.2208C15.6203 37.5306 15.6089 38.0585 15.6546 38.3683C15.7004 38.6781 15.8263 39.1257 15.9407 39.3437C16.0551 39.5617 16.3183 39.9634 16.5243 40.2388C16.7836 40.5601 17.1689 40.8431 17.68 41.0879L18.458 41.4666H40.542C41.835 40.847 42.2126 40.5601 42.4757 40.2273C42.6817 39.9634 42.9449 39.5617 43.0593 39.3437C43.1737 39.1257 43.2996 38.6781 43.3454 38.3683C43.3911 38.0585 43.3797 37.5306 43.311 37.2208C43.2424 36.8421 41.3773 32.975 37.8873 25.9751C34.958 20.0998 32.3949 15.0966 32.189 14.8442C31.9945 14.5917 31.5482 14.236 31.2049 14.0409C30.69 13.7655 30.4268 13.6967 29.6144 13.6622C28.699 13.6278 28.596 13.6393 27.9095 14.0065C27.4747 14.2245 27.017 14.5803 26.7996 14.8442Z" fill="white"/>
</svg>
