<svg width="59" height="59" viewBox="0 0 59 59" fill="none" xmlns="http://www.w3.org/2000/svg">
<path d="M29.5 59C45.7924 59 59 45.7924 59 29.5C59 13.2076 45.7924 0 29.5 0C13.2076 0 0 13.2076 0 29.5C0 45.7924 13.2076 59 29.5 59Z" fill="#E84142"/>
<path fill-rule="evenodd" clip-rule="evenodd" d="M16.4086 41.5101H21.8335C23.1108 41.5101 23.7494 41.5101 24.3194 41.3523C24.9443 41.1665 25.5143 40.8371 25.9881 40.3838C26.4232 39.9692 26.7372 39.4197 27.3567 38.3357L27.357 38.335L27.3752 38.3032L34.4112 25.8656C35.0361 24.7738 35.3451 24.2244 35.4824 23.6476C35.6335 23.0227 35.6335 22.3634 35.4824 21.7385C35.3461 21.1661 35.034 20.6206 34.4184 19.5451L34.4043 19.5205L31.6506 14.7136C31.0807 13.711 30.7923 13.2097 30.4283 13.0243C30.0369 12.8252 29.5699 12.8252 29.1785 13.0243C28.8146 13.2097 28.5262 13.711 27.9562 14.7136L14.5614 38.3238C13.9983 39.3126 13.7168 39.8072 13.7374 40.2122C13.7649 40.6518 13.9915 41.05 14.3623 41.2905C14.7056 41.5101 15.2687 41.5101 16.4086 41.5101ZM43.3065 41.5101H35.5332C34.3865 41.5101 33.8096 41.5101 33.4731 41.2905C33.1023 41.05 32.8757 40.6451 32.8483 40.2055C32.8278 39.8035 33.1116 39.3136 33.6795 38.3334L33.6796 38.3331L33.6929 38.3102L37.5727 31.6492C38.1427 30.6673 38.4311 30.1797 38.7882 29.9943C39.1794 29.7951 39.6399 29.7951 40.0311 29.9943C40.3856 30.1748 40.6617 30.6417 41.2083 31.566L41.2091 31.5674L41.2534 31.6424L45.1471 38.3033C45.157 38.3204 45.1667 38.3373 45.1764 38.354C45.1854 38.3695 45.1944 38.3849 45.2033 38.4001L45.2034 38.4002C45.743 39.3316 46.0185 39.8069 45.9987 40.1988C45.9779 40.638 45.7445 41.0433 45.3738 41.2838C45.0302 41.5101 44.4533 41.5101 43.3065 41.5101H43.3065Z" fill="white"/>
</svg>
