<svg width="52" height="52" viewBox="0 0 52 52" fill="none" xmlns="http://www.w3.org/2000/svg">
<path d="M0.84132 23.4207C1.97845 23.4207 3.11559 23.4207 4.25384 23.4207C4.73186 23.4207 5.11878 23.8075 5.11878 24.2853C5.11878 25.422 5.11878 26.5589 5.11878 27.6967C5.11878 28.1509 4.73186 28.5377 4.25384 28.5377C3.11671 28.5377 1.97958 28.5377 0.84132 28.5377C0.386917 28.5377 0 28.1509 0 27.6967C0 26.56 0 25.4231 0 24.2853C0 23.8075 0.386917 23.4207 0.84132 23.4207ZM7.98355 28.3555C8.96209 28.3555 9.9395 28.3555 10.9405 28.3555C11.3499 28.3555 11.6683 28.6737 11.6683 29.0831C11.6683 30.0837 11.6683 31.0608 11.6683 32.0614C11.6683 32.4708 11.3499 32.789 10.9405 32.789C9.9395 32.789 8.96209 32.789 7.98355 32.789C7.57415 32.789 7.23334 32.4708 7.23334 32.0614C7.23334 31.0608 7.23334 30.0837 7.23334 29.0831C7.23334 28.6737 7.57415 28.3555 7.98355 28.3555ZM15.6499 30.5154C16.4912 30.5154 17.3337 30.5154 18.175 30.5154C18.5158 30.5154 18.8116 30.8113 18.8116 31.152C18.8116 31.993 18.8116 32.8351 18.8116 33.6761C18.8116 34.0168 18.5158 34.2899 18.175 34.2899C17.3337 34.2899 16.4912 34.2899 15.6499 34.2899C15.3091 34.2899 15.0358 34.0168 15.0358 33.6761C15.0358 32.8351 15.0358 31.993 15.0358 31.152C15.0358 30.8113 15.3091 30.5154 15.6499 30.5154ZM10.0081 6.41231C10.8269 7.20837 11.6233 8.00441 12.4196 8.80047C12.7604 9.14115 12.7604 9.68761 12.4196 10.0058C11.6233 10.8243 10.8269 11.6204 10.0081 12.4164C9.68982 12.7571 9.14318 12.7571 8.80238 12.4164C8.00605 11.6204 7.20971 10.8243 6.39089 10.0058C6.07258 9.68761 6.07258 9.14115 6.39089 8.80047C7.20971 8.00441 8.00605 7.20837 8.80238 6.41231C9.14431 6.07048 9.68982 6.07048 10.0081 6.41231ZM11.5783 14.9159C12.2835 15.6209 12.9887 16.3034 13.6715 17.0084C13.9673 17.3041 13.9673 17.782 13.6715 18.0541C12.9887 18.759 12.2835 19.464 11.5783 20.1465C11.2825 20.4422 10.8281 20.4422 10.5323 20.1465C9.82703 19.464 9.14431 18.759 8.43909 18.0541C8.14327 17.7808 8.14327 17.3041 8.43909 17.0084C9.14431 16.3034 9.82703 15.6209 10.5323 14.9159C10.8269 14.6214 11.2825 14.6214 11.5783 14.9159ZM15.4677 21.8747C16.0818 22.4885 16.6735 23.08 17.2651 23.6715C17.5148 23.921 17.5148 24.3079 17.2651 24.5585C16.6735 25.15 16.0818 25.7415 15.4677 26.3317C15.2405 26.5812 14.8311 26.5812 14.5803 26.3317C13.9886 25.7402 13.397 25.1489 12.8065 24.5585C12.5568 24.309 12.5568 23.9221 12.8065 23.6715C13.3981 23.08 13.9898 22.4885 14.5803 21.8747C14.8311 21.6476 15.2405 21.6476 15.4677 21.8747ZM28.5477 0.841032C28.5477 1.97777 28.5477 3.11452 28.5477 4.25239C28.5477 4.73023 28.1606 5.11702 27.7062 5.11702C26.5691 5.11702 25.432 5.11702 24.2938 5.11702C23.8158 5.11702 23.4287 4.73023 23.4287 4.25239C23.4287 3.11563 23.4287 1.9789 23.4287 0.841032C23.4287 0.386785 23.8158 0 24.2938 0C25.4309 0 26.568 0 27.7062 0C28.1606 0 28.5477 0.385661 28.5477 0.841032ZM23.6345 7.9808C23.6345 8.95901 23.6345 9.93608 23.6345 10.9368C23.6345 11.3461 23.2938 11.6642 22.8844 11.6642C21.9059 11.6642 20.9059 11.6642 19.9274 11.6642C19.518 11.6642 19.1772 11.3461 19.1772 10.9368C19.1772 9.93608 19.1772 8.95901 19.1772 7.9808C19.1772 7.57153 19.518 7.23085 19.9274 7.23085C20.9059 7.23085 21.9059 7.23085 22.8844 7.23085C23.2927 7.23085 23.6345 7.57153 23.6345 7.9808ZM21.4503 15.6445C21.4503 16.4856 21.4503 17.3277 21.4503 18.1688C21.4503 18.5094 21.177 18.8051 20.8362 18.8051C19.9949 18.8051 19.1524 18.8051 18.3111 18.8051C17.9703 18.8051 17.6745 18.5094 17.6745 18.1688C17.6745 17.3277 17.6745 16.4856 17.6745 15.6445C17.6745 15.3039 17.9703 15.0306 18.3111 15.0306C19.1524 15.0306 19.9949 15.0306 20.8362 15.0306C21.177 15.0306 21.4503 15.3027 21.4503 15.6445ZM45.5854 10.0047C44.789 10.8232 43.9703 11.6193 43.1739 12.4153C42.8332 12.756 42.309 12.756 41.9681 12.4153C41.1719 11.6193 40.353 10.8232 39.5568 10.0047C39.2384 9.68648 39.2384 9.14002 39.5568 8.79934C40.353 8.00328 41.1719 7.20724 41.9681 6.41118C42.309 6.07048 42.8332 6.07048 43.1739 6.41118C43.9703 7.20724 44.789 8.00328 45.5854 8.79934C45.9263 9.14115 45.9263 9.68648 45.5854 10.0047ZM37.0777 11.5743C36.3725 12.2793 35.6672 12.9843 34.962 13.6668C34.6887 13.9625 34.2118 13.9625 33.9161 13.6668C33.2334 12.9843 32.5282 12.2793 31.823 11.5743C31.5271 11.2786 31.5271 10.8243 31.823 10.5286C32.5282 9.82365 33.2334 9.14115 33.9161 8.43618C34.2118 8.14047 34.6898 8.14047 34.962 8.43618C35.6672 9.14115 36.3725 9.82365 37.0777 10.5286C37.351 10.8232 37.351 11.2786 37.0777 11.5743ZM30.0941 15.4624C29.5024 16.0763 28.9109 16.6677 28.3205 17.2591C28.0707 17.5087 27.6612 17.5087 27.4103 17.2591C26.8188 16.6677 26.2271 16.0763 25.6367 15.4624C25.3869 15.2353 25.3869 14.826 25.6367 14.5753C26.2284 13.9838 26.8199 13.3924 27.4103 12.8021C27.6601 12.5525 28.0694 12.5525 28.3205 12.8021C28.912 13.3935 29.5037 13.985 30.0941 14.5753C30.3449 14.826 30.3449 15.2353 30.0941 15.4624ZM51.1349 28.5377C49.9978 28.5377 48.8607 28.5377 47.7461 28.5377C47.2681 28.5377 46.8811 28.1509 46.8811 27.6967C46.8811 26.56 46.8811 25.4231 46.8811 24.2853C46.8811 23.8075 47.2681 23.4207 47.7461 23.4207C48.8607 23.4207 49.9978 23.4207 51.1349 23.4207C51.6129 23.4207 52 23.8075 52 24.2853C52 25.422 52 26.5589 52 27.6967C52 28.1509 51.6129 28.5377 51.1349 28.5377ZM44.0153 23.6254C43.0368 23.6254 42.0368 23.6254 41.0582 23.6254C40.6489 23.6254 40.3082 23.2847 40.3082 22.8753C40.3082 21.8972 40.3082 20.8976 40.3082 19.9194C40.3082 19.5101 40.6489 19.1694 41.0582 19.1694C42.0368 19.1694 43.0368 19.1694 44.0153 19.1694C44.4247 19.1694 44.7654 19.5101 44.7654 19.9194C44.7654 20.8976 44.7654 21.8972 44.7654 22.8753C44.7667 23.2847 44.4247 23.6254 44.0153 23.6254ZM36.3274 21.4429C35.4862 21.4429 34.6439 21.4429 33.8024 21.4429C33.4617 21.4429 33.1884 21.1697 33.1884 20.829C33.1884 19.988 33.1884 19.1458 33.1884 18.3048C33.1884 17.9641 33.4617 17.6684 33.8024 17.6684C34.6439 17.6684 35.4862 17.6684 36.3274 17.6684C36.6683 17.6684 36.9642 17.9641 36.9642 18.3048C36.9642 19.1458 36.9642 19.988 36.9642 20.829C36.9642 21.1697 36.6683 21.4429 36.3274 21.4429ZM41.9681 45.5685C41.1719 44.7725 40.353 43.954 39.5568 43.1579C39.2384 42.8397 39.2384 42.2932 39.5568 41.9525C40.353 41.1565 41.1719 40.338 41.9681 39.5419C42.309 39.2237 42.8332 39.2237 43.1739 39.5419C43.9703 40.338 44.789 41.1565 45.5854 41.9525C45.9263 42.2932 45.9263 42.8397 45.5854 43.1579C44.789 43.954 43.9703 44.7725 43.1739 45.5685C42.8332 45.9103 42.309 45.9103 41.9681 45.5685ZM40.3991 37.0649C39.7164 36.3599 39.0112 35.6549 38.306 34.9501C38.0326 34.6768 38.0326 34.2001 38.306 33.9044C39.0112 33.2219 39.7164 32.5169 40.3991 31.8119C40.695 31.5163 41.173 31.5163 41.4689 31.8119C42.1516 32.5169 42.8568 33.2219 43.562 33.9044C43.8354 34.2001 43.8354 34.6779 43.562 34.9501C42.8568 35.6549 42.1516 36.3599 41.4689 37.0649C41.1719 37.337 40.695 37.337 40.3991 37.0649ZM36.5087 30.0837C35.917 29.4922 35.3255 28.9009 34.7348 28.3105C34.4851 28.061 34.4851 27.6516 34.7348 27.4235C35.3265 26.8095 35.9181 26.2182 36.5087 25.6267C36.7582 25.3772 37.1453 25.3772 37.3961 25.6267C37.9876 26.2182 38.6019 26.8095 39.1934 27.4235C39.4206 27.6505 39.4206 28.0599 39.1934 28.3105C38.6019 28.902 37.9876 29.4935 37.3961 30.0837C37.1464 30.3332 36.7595 30.3332 36.5087 30.0837ZM23.4298 51.1174C23.4298 49.9807 23.4298 48.8438 23.4298 47.7297C23.4298 47.2519 23.8169 46.865 24.2949 46.865C25.432 46.865 26.5691 46.865 27.7073 46.865C28.1617 46.865 28.5487 47.2519 28.5487 47.7297C28.5487 48.8438 28.5487 49.9807 28.5487 51.1174C28.5487 51.5952 28.1617 51.982 27.7073 51.982C26.5702 51.982 25.4331 51.982 24.2949 51.982C23.8158 51.982 23.4298 51.5952 23.4298 51.1174ZM28.3653 44.0002C28.3653 43.0218 28.3653 42.0223 28.3653 41.0441C28.3653 40.6348 28.6837 40.2941 29.093 40.2941C30.0941 40.2941 31.0716 40.2941 32.0725 40.2941C32.4821 40.2941 32.8002 40.6348 32.8002 41.0441C32.8002 42.0223 32.8002 43.0218 32.8002 44.0002C32.8002 44.4093 32.4821 44.75 32.0725 44.75C31.0716 44.75 30.0941 44.75 29.093 44.75C28.6837 44.75 28.3653 44.4093 28.3653 44.0002ZM30.526 36.3138C30.526 35.4727 30.526 34.6306 30.526 33.7896C30.526 33.4489 30.8219 33.1758 31.1626 33.1758C32.004 33.1758 32.8464 33.1758 33.6878 33.1758C34.0285 33.1758 34.3019 33.4489 34.3019 33.7896C34.3019 34.6306 34.3019 35.4727 34.3019 36.3138C34.3019 36.6545 34.0285 36.9503 33.6878 36.9503C32.8464 36.9503 32.004 36.9503 31.1626 36.9503C30.8219 36.9514 30.526 36.6558 30.526 36.3138ZM6.39201 41.9538C7.21084 41.1576 8.00718 40.3391 8.8035 39.5432C9.14431 39.225 9.69094 39.225 10.0092 39.5432C10.8281 40.3391 11.6244 41.1576 12.4207 41.9538C12.7615 42.2945 12.7615 42.8408 12.4207 43.1592C11.6244 43.9551 10.8281 44.7736 10.0092 45.5698C9.69094 45.9103 9.14431 45.9103 8.8035 45.5698C8.00718 44.7736 7.21084 43.9551 6.39201 43.1592C6.07371 42.8408 6.07371 42.2945 6.39201 41.9538ZM14.9222 40.3842C15.6274 39.7017 16.3102 38.9967 17.0154 38.2917C17.3112 38.0183 17.7892 38.0183 18.0614 38.2917C18.7666 38.9967 19.4719 39.7017 20.1546 40.3842C20.4504 40.6798 20.4504 41.1576 20.1546 41.4535C19.4719 42.136 18.7666 42.8408 18.0614 43.5458C17.7881 43.8191 17.3112 43.8191 17.0154 43.5458C16.3102 42.8408 15.6274 42.136 14.9222 41.4535C14.6264 41.1576 14.6264 40.6798 14.9222 40.3842ZM21.8823 36.4959C22.4963 35.9046 23.088 35.3131 23.6795 34.7229C23.9293 34.4732 24.3161 34.4732 24.5669 34.7229C25.1586 35.3144 25.7504 35.9057 26.3408 36.4959C26.5905 36.7457 26.5905 37.155 26.3408 37.3831C25.7491 37.9746 25.1576 38.5884 24.5669 39.1799C24.3174 39.4071 23.9304 39.4071 23.6795 39.1799C23.088 38.5884 22.4963 37.9746 21.8823 37.3831C21.655 37.1561 21.655 36.7457 21.8823 36.4959Z" fill="url(#paint0_linear_14281_10290)"/>
<defs>
<linearGradient id="paint0_linear_14281_10290" x1="-0.000168714" y1="25.9906" x2="51.9998" y2="25.9906" gradientUnits="userSpaceOnUse">
<stop stop-color="#0194FE"/>
<stop offset="1" stop-color="#2ADFF3"/>
</linearGradient>
</defs>
</svg>
