<svg width="39" height="43" viewBox="0 0 39 43" fill="none" xmlns="http://www.w3.org/2000/svg">
<path d="M19.6154 28.6531H0V0H19.6154C26.3489 0 31.8049 5.45602 31.8049 12.1855V16.4636C31.8049 23.197 26.3489 28.6531 19.6154 28.6531Z" fill="#AEDB01"/>
<path d="M24.6695 42.9812H0V28.6547C0 20.7432 6.4151 14.3281 14.3305 14.3281H24.6695C32.5849 14.3281 39 20.7432 39 28.6547C39 36.5661 32.5849 42.9812 24.6695 42.9812Z" fill="#B0B1AC"/>
<path d="M31.8049 16.2304V16.4691C31.8049 23.2026 26.3489 28.6547 19.6114 28.6547H0C0 24.6989 1.60776 21.1173 4.19449 18.5226C6.78918 15.9279 10.3708 14.3281 14.3345 14.3281H24.6695C27.2682 14.3321 29.7037 15.0246 31.8049 16.2304Z" fill="#5D6D3C"/>
</svg>
