<svg width="66" height="66" viewBox="0 0 66 66" fill="none" xmlns="http://www.w3.org/2000/svg">
<path d="M28.4097 0.252328C28.9756 0.178515 29.804 0.0882998 30.255 0.0472927C30.7061 0.00628563 32.0348 -0.0101172 33.2076 0.00628563C34.4542 0.0226885 35.7828 0.0882999 36.4061 0.162113C36.9884 0.235925 37.9152 0.367148 38.4565 0.457364C38.9978 0.555781 39.9737 0.760817 40.6298 0.924845C41.286 1.08067 42.3521 1.39233 43.0083 1.60556C43.6644 1.8188 44.6239 2.17146 45.1406 2.3847C45.6573 2.59794 46.6005 3.02441 47.232 3.32786C47.8635 3.63952 48.9133 4.21362 49.5694 4.60728C50.2255 4.99275 51.1769 5.61606 51.6936 5.98512C52.2103 6.34598 53.014 6.96109 53.4979 7.34656C53.9736 7.73203 54.9003 8.56037 55.5482 9.19188C56.1961 9.82339 57.0737 10.7419 57.5084 11.2422C57.9348 11.7425 58.55 12.4971 58.878 12.9235C59.1979 13.35 59.69 14.0389 59.9606 14.4408C60.2312 14.8427 60.6659 15.5316 60.9284 15.9581C61.1908 16.3845 61.6173 17.1391 61.8797 17.6393C62.1422 18.1396 62.5522 19.0008 62.7983 19.5667C63.0443 20.1326 63.4134 21.0593 63.6266 21.6416C63.8317 22.2157 64.1515 23.1917 64.3238 23.815C64.496 24.4301 64.7584 25.5127 64.8979 26.2098C65.0373 26.9069 65.2013 27.9075 65.2751 28.4242C65.3407 28.9409 65.431 29.8513 65.4802 30.4336C65.5294 31.0159 65.5622 32.0738 65.5622 32.771C65.5622 33.4681 65.5212 34.5425 65.4802 35.1494C65.431 35.7563 65.3325 36.683 65.2669 37.1997C65.2013 37.7164 65.0291 38.7006 64.8979 39.3731C64.7584 40.0538 64.4796 41.1692 64.2827 41.8581C64.0859 42.5389 63.7333 43.6133 63.5036 44.2366C63.2658 44.8517 62.8803 45.803 62.6261 46.3443C62.38 46.8856 61.9371 47.7714 61.6419 48.3127C61.3466 48.854 60.8874 49.6577 60.6085 50.1006C60.3297 50.5435 59.7966 51.339 59.4111 51.8803C59.0256 52.4134 58.3859 53.2499 57.9759 53.7338C57.5658 54.2259 56.8113 55.0624 56.2946 55.6037C55.7779 56.1368 54.9659 56.916 54.4903 57.3342C54.0146 57.7443 53.26 58.3758 52.809 58.7285C52.3579 59.0811 51.5623 59.6552 51.0457 59.9997C50.529 60.3442 49.7744 60.8198 49.3644 61.0659C48.9543 61.3037 48.0521 61.7794 47.355 62.1321C46.6579 62.4765 45.6245 62.9522 45.0586 63.1818C44.4927 63.4033 43.6398 63.7231 43.1477 63.8872C42.6638 64.0512 41.8765 64.289 41.3844 64.4285C40.9005 64.5597 39.9737 64.7729 39.3176 64.9123C38.6615 65.0436 37.6855 65.2076 37.1442 65.2814C36.6029 65.3552 35.6762 65.4454 35.0939 65.4946C34.5116 65.5357 33.4536 65.5767 32.7565 65.5767C32.0594 65.5767 31.0014 65.5357 30.4191 65.4946C29.8368 65.4454 28.91 65.3552 28.3687 65.2814C27.8274 65.2076 26.8515 65.0436 26.1953 64.9123C25.5392 64.7811 24.432 64.5105 23.7349 64.3136C23.0378 64.1168 22.0208 63.7805 21.4795 63.5837C20.9382 63.3787 19.9787 62.985 19.3472 62.7062C18.7156 62.4273 17.8873 62.0336 17.5018 61.8286C17.1164 61.6236 16.4931 61.2709 16.1076 61.0413C15.7221 60.8116 15.025 60.3688 14.5493 60.0571C14.0736 59.7372 13.3191 59.2042 12.868 58.8597C12.417 58.5234 11.6214 57.8673 11.1047 57.408C10.588 56.957 9.70228 56.104 9.13638 55.5217C8.57049 54.9394 7.70934 53.9634 7.22545 53.3565C6.73337 52.7496 6.03625 51.8065 5.66718 51.2652C5.29812 50.7239 4.74862 49.8545 4.43697 49.3378C4.13352 48.8212 3.60863 47.837 3.27237 47.1645C2.94431 46.492 2.46863 45.4176 2.22259 44.7861C1.96834 44.1545 1.62388 43.154 1.44345 42.5717C1.26302 41.9894 1.02518 41.12 0.902156 40.6443C0.787337 40.1687 0.606905 39.2829 0.492085 38.676C0.377265 38.0691 0.221438 37.0357 0.139424 36.3796C0.0328057 35.4856 0 34.5917 0 32.771C0 30.9421 0.0328057 30.0563 0.139424 29.1623C0.221438 28.5062 0.34446 27.6615 0.410071 27.276C0.475682 26.8905 0.623308 26.1524 0.738128 25.6357C0.852948 25.119 1.08259 24.1923 1.26302 23.5854C1.43525 22.9785 1.7469 22.0353 1.94374 21.494C2.14877 20.9527 2.51784 20.026 2.78028 19.4437C3.03453 18.8614 3.4364 18.0248 3.65783 17.5983C3.88747 17.1719 4.26474 16.5075 4.48618 16.1221C4.71582 15.7366 5.15869 15.0395 5.47035 14.5638C5.7902 14.0881 6.3233 13.3336 6.66776 12.8825C7.00401 12.4314 7.66013 11.6359 8.11941 11.1192C8.57049 10.6025 9.42343 9.71677 10.0057 9.15087C10.588 8.58497 11.564 7.72382 12.1709 7.23994C12.7778 6.74786 13.762 6.02613 14.3443 5.63246C14.9266 5.23879 15.7221 4.73031 16.1076 4.50067C16.4931 4.27103 17.1164 3.91836 17.5018 3.71333C17.8873 3.50829 18.6582 3.13103 19.2241 2.87678C19.79 2.62254 20.7332 2.23707 21.3155 2.01563C21.8978 1.7942 22.9148 1.46614 23.5709 1.27751C24.227 1.08887 25.3506 0.810025 26.0723 0.662399C26.794 0.514774 27.8438 0.326141 28.4097 0.252328Z" fill="#1A1A1A"/>
<path d="M29.1888 0.918518C29.8203 0.844705 30.5584 0.770892 30.8291 0.75449C31.0997 0.738087 32.2069 0.738087 33.2895 0.75449C34.3885 0.770892 35.7499 0.836504 36.365 0.910317C36.9719 0.984129 37.9725 1.13176 38.5794 1.24657C39.1863 1.36139 40.1295 1.56643 40.6708 1.69765C41.2121 1.83708 42.065 2.07492 42.5571 2.23895C43.0492 2.39477 43.9759 2.73103 44.6074 2.97708C45.239 3.23132 46.3051 3.707 46.9859 4.04326C47.6584 4.38772 48.6754 4.93721 49.2413 5.28167C49.8072 5.61793 50.6929 6.19203 51.2096 6.5611C51.7263 6.92196 52.5546 7.55347 53.0549 7.96354C53.547 8.36541 54.4656 9.19375 55.0971 9.80886C55.7204 10.4158 56.5815 11.3179 57.0162 11.8182C57.4427 12.3185 58.1234 13.1632 58.5253 13.7045C58.9353 14.2458 59.5586 15.1726 59.9277 15.7549C60.2886 16.3372 60.8791 17.3706 61.2235 18.0513C61.5762 18.7238 62.0437 19.708 62.2651 20.2247C62.4865 20.7414 62.8556 21.7009 63.077 22.357C63.3067 23.0131 63.6183 24.0629 63.7824 24.6944C63.9464 25.326 64.1514 26.2281 64.2416 26.7038C64.3319 27.1795 64.4631 27.9668 64.5287 28.4671C64.6025 28.9674 64.6927 29.9762 64.7501 30.7225C64.8075 31.5262 64.824 32.7318 64.7911 33.675C64.7665 34.5526 64.6845 35.7746 64.6107 36.3815C64.5451 36.9884 64.3975 37.9889 64.2827 38.5959C64.1678 39.2028 63.9628 40.1459 63.8316 40.6872C63.6922 41.2285 63.4543 42.0815 63.2903 42.5735C63.1345 43.0656 62.7982 43.9924 62.5522 44.6239C62.2979 45.2554 61.8222 46.3216 61.486 47.0023C61.1415 47.6748 60.592 48.6918 60.2476 49.2577C59.9113 49.8236 59.3372 50.7094 58.9681 51.226C58.6073 51.7427 57.9758 52.5711 57.5657 53.0714C57.1638 53.5634 56.3355 54.482 55.7204 55.1135C55.1135 55.7368 54.2031 56.598 53.711 57.0326C53.2189 57.4591 52.366 58.1398 51.8247 58.5417C51.2834 58.9518 50.3566 59.5751 49.7743 59.9442C49.192 60.305 48.1587 60.8955 47.4779 61.24C46.8054 61.5926 45.8213 62.0601 45.3046 62.2816C44.7879 62.503 43.8283 62.8721 43.1722 63.0935C42.5161 63.3231 41.4663 63.643 40.8348 63.7988C40.2033 63.9629 39.1863 64.1843 38.5794 64.2991C37.9725 64.4139 36.9391 64.5698 36.283 64.6436C35.4219 64.7502 34.4705 64.7912 32.8384 64.7912C31.5918 64.7912 30.1647 64.7502 29.6398 64.6928C29.1232 64.6354 28.1226 64.4959 27.4255 64.3811C26.7283 64.2663 25.5637 64.0203 24.842 63.8398C24.1203 63.6594 22.9967 63.3231 22.3406 63.1017C21.6845 62.8721 20.7659 62.5194 20.2902 62.3226C19.8145 62.1175 18.9452 61.7075 18.3629 61.4204C17.7806 61.1252 16.8374 60.6085 16.2715 60.264C15.7056 59.9278 14.8773 59.3947 14.4262 59.0748C13.9751 58.755 13.1632 58.1398 12.6219 57.7134C12.0806 57.2787 11.1046 56.4093 10.4567 55.7778C9.80881 55.1463 8.93126 54.2196 8.49658 53.7275C8.07011 53.2354 7.38939 52.3824 6.98752 51.8411C6.57745 51.2999 5.95414 50.3731 5.58508 49.7908C5.22422 49.2085 4.63371 48.1751 4.28925 47.4944C3.93659 46.8219 3.46091 45.8213 3.23127 45.28C2.99343 44.7387 2.60796 43.7053 2.37012 42.9836C2.12408 42.2619 1.82062 41.2285 1.6812 40.6872C1.54998 40.1459 1.34494 39.2028 1.23012 38.5959C1.1153 37.9889 0.959476 36.9556 0.885663 36.2995C0.779044 35.4383 0.738037 34.4869 0.738037 32.8549C0.738037 31.6082 0.779044 30.1812 0.836454 29.6563C0.893864 29.1396 1.02509 28.1636 1.13991 27.4829C1.25473 26.8104 1.46796 25.736 1.62379 25.1045C1.77962 24.473 2.04206 23.5298 2.20609 23.0131C2.37012 22.4965 2.71458 21.5533 2.96062 20.9218C3.20667 20.2903 3.73976 19.1257 4.13343 18.3383C4.5353 17.551 5.1586 16.4192 5.52767 15.8369C5.89673 15.2546 6.47903 14.3853 6.82349 13.9096C7.16795 13.4339 7.80766 12.6219 8.24234 12.1053C8.67701 11.5886 9.50536 10.6864 10.0877 10.1041C10.67 9.52181 11.5885 8.67706 12.138 8.21778C12.6793 7.7585 13.5979 7.05318 14.1638 6.65131C14.7379 6.24944 15.7138 5.60973 16.3289 5.23247C16.9522 4.8634 17.9446 4.32211 18.5269 4.02686C19.1092 3.73981 20.036 3.32153 20.5773 3.1001C21.1186 2.87866 22.0781 2.526 22.7096 2.32096C23.3412 2.11593 24.3007 1.83708 24.842 1.69765C25.3833 1.56643 26.3265 1.36139 26.9334 1.24657C27.5403 1.13176 28.5573 0.984129 29.1888 0.918518Z" fill="#F8FBFC"/>
<path d="M28.1635 3.33587C28.7294 3.23745 29.5413 3.13083 29.9678 3.09803C30.3943 3.05702 31.5753 3.01601 32.5922 3.00781C33.6092 3.00781 34.864 3.04062 35.3807 3.08163C35.8974 3.13083 36.8734 3.26206 37.5541 3.36868C38.2266 3.4835 39.3174 3.70493 39.9735 3.86896C40.6296 4.02479 41.663 4.32824 42.2699 4.53328C42.8768 4.73831 43.82 5.09097 44.3613 5.32061C44.9026 5.55025 45.7883 5.96032 46.3296 6.23917C46.8709 6.51802 47.7239 6.9937 48.216 7.29716C48.708 7.60061 49.52 8.1337 50.0121 8.47816C50.5042 8.83082 51.3571 9.48694 51.8984 9.93801C52.4479 10.3973 53.4075 11.2995 54.039 11.9474C54.6787 12.5953 55.548 13.5712 55.9827 14.1125C56.4092 14.6538 57.0079 15.4494 57.2949 15.8758C57.5902 16.3023 58.0495 17.024 58.3201 17.4751C58.5908 17.9262 59.0582 18.7791 59.3453 19.3614C59.6405 19.9438 60.0342 20.7803 60.2146 21.2068C60.3951 21.6332 60.6739 22.355 60.8379 22.806C60.9938 23.2571 61.2644 24.0855 61.4202 24.6514C61.5843 25.2173 61.8221 26.2096 61.9533 26.8657C62.0846 27.5219 62.2486 28.4978 62.3306 29.0391C62.4044 29.6132 62.4782 30.8762 62.5028 32.0737C62.5274 33.3531 62.511 34.5587 62.4536 35.2722C62.3962 35.9037 62.2568 36.9781 62.142 37.6506C62.0271 38.3313 61.8139 39.3811 61.6663 39.988C61.5187 40.5949 61.2398 41.5545 61.0512 42.1204C60.8625 42.6863 60.5427 43.5556 60.3377 44.0477C60.1326 44.5398 59.6815 45.524 59.3289 46.2211C58.9762 46.9182 58.3939 47.9516 58.0413 48.5175C57.6886 49.0834 57.0817 49.9692 56.6962 50.4859C56.3108 51.0025 55.6628 51.8145 55.2528 52.2902C54.8427 52.7658 54.039 53.6106 53.4567 54.1765C52.8744 54.7424 51.9558 55.5543 51.4145 55.989C50.8732 56.4237 50.0777 57.0142 49.6512 57.3094C49.2247 57.6047 48.4866 58.0804 48.0109 58.3592C47.5352 58.6463 46.5757 59.163 45.8785 59.4992C45.1814 59.8437 44.2219 60.2783 43.7462 60.467C43.2705 60.6474 42.5324 60.9181 42.1059 61.0657C41.6794 61.2051 40.7691 61.4676 40.0965 61.6398C39.4158 61.812 38.2922 62.0499 37.5951 62.1647C36.898 62.2795 35.8974 62.4107 35.3807 62.4599C34.864 62.5009 33.683 62.5419 32.7563 62.5419C31.8295 62.5419 30.6485 62.5009 30.1318 62.4599C29.6151 62.4107 28.631 62.2795 27.9584 62.1729C27.2777 62.0581 26.2115 61.8448 25.58 61.689C24.9485 61.5332 23.9725 61.2543 23.4066 61.0657C22.8408 60.8771 21.9796 60.5572 21.4793 60.3522C20.979 60.1553 20.1343 59.7699 19.593 59.5074C19.0517 59.245 18.1823 58.7693 17.6657 58.4658C17.149 58.1542 16.337 57.6375 15.8613 57.3176C15.3857 56.9896 14.5983 56.4073 14.098 56.0136C13.5977 55.6199 12.5316 54.6276 11.7114 53.8156C10.8995 52.9955 9.93991 51.9621 9.57905 51.511C9.22639 51.0599 8.66049 50.3054 8.32423 49.8297C7.99618 49.3541 7.44668 48.5093 7.11042 47.9434C6.77416 47.3775 6.24927 46.4015 5.93762 45.77C5.63417 45.1385 5.18309 44.0887 4.92884 43.4326C4.6746 42.7765 4.34654 41.8005 4.19072 41.2592C4.03489 40.718 3.80525 39.8486 3.69043 39.3319C3.57561 38.8152 3.41158 37.9295 3.32137 37.3636C3.23115 36.7977 3.11633 35.9119 3.06712 35.3952C3.02611 34.8785 2.98511 33.6975 2.98511 32.7708C2.98511 31.844 3.02611 30.663 3.06712 30.1463C3.11633 29.6296 3.24755 28.6537 3.35417 27.9729C3.46899 27.3004 3.68223 26.226 3.83806 25.5945C3.99388 24.963 4.27273 23.9871 4.46136 23.4212C4.65 22.8553 4.96985 21.9941 5.17489 21.4938C5.37172 20.9935 5.75719 20.1488 6.01963 19.6075C6.28208 19.0662 6.75776 18.1968 7.06121 17.6802C7.37287 17.1635 7.88956 16.3515 8.20941 15.8758C8.53747 15.4002 9.11977 14.6128 9.51344 14.1125C9.90711 13.6123 10.8995 12.5461 11.7114 11.7259C12.5316 10.914 13.5649 9.95442 14.016 9.59355C14.4671 9.24089 15.2216 8.675 15.6973 8.33874C16.173 8.01068 17.0177 7.46118 17.5836 7.12493C18.1495 6.78867 19.1255 6.26378 19.757 5.95212C20.3885 5.64867 21.4383 5.19759 22.0944 4.94335C22.7505 4.6891 23.7265 4.36105 24.2678 4.20522C24.8091 4.04939 25.6784 3.81975 26.1951 3.70493C26.7118 3.59011 27.5976 3.42609 28.1635 3.33587Z" fill="#1F211F"/>
<path d="M35.914 21.985C36.4471 20.7219 36.9392 19.5655 37.013 19.4097C37.0868 19.2621 37.1606 19.1637 37.1935 19.2047C37.2181 19.2457 38.1366 20.6809 39.2356 22.395C40.3346 24.1091 41.2696 25.5608 41.3188 25.61C41.368 25.6674 41.8683 25.8068 42.4342 25.9216C43.0001 26.0365 43.5168 26.1431 43.5824 26.1677C43.648 26.1841 44.2467 26.8074 44.9028 27.5373C45.5589 28.2754 46.8793 29.7517 49.5694 32.7698V37.2396L55.2284 43.7597L53.1616 45.2032C52.0216 45.9987 50.9554 46.745 50.5126 47.0485L43.1723 45.6461C39.1372 44.8751 35.791 44.2518 35.75 44.2764C35.709 44.2928 32.8303 47.9178 29.3529 52.322C23.7267 59.4572 23.0214 60.3184 22.9148 60.2118C22.8492 60.138 22.7261 60.0806 22.6523 60.0806C22.5703 60.0806 22.5047 60.0149 22.5047 59.9329C22.5047 59.8591 23.128 56.677 23.899 52.8633C24.6699 49.0496 25.2768 45.9167 25.2522 45.8921C25.2276 45.8675 23.5299 46.1299 21.4713 46.4662C19.421 46.8025 17.7479 47.1223 17.7479 47.1633C17.7479 47.2043 18.4368 49.878 20.8234 58.9488L20.643 59.0226C20.5364 59.0636 20.3887 59.0964 20.3149 59.0964C20.1919 59.0964 19.9295 58.2106 18.6664 53.421C17.8381 50.2963 17.1246 47.6144 17.0836 47.4668C17.0426 47.3273 16.9852 47.2043 16.9523 47.2043C16.9113 47.2125 15.025 47.516 12.745 47.8932C8.79193 48.5412 8.6033 48.5658 8.52128 48.4181C8.48028 48.3361 8.42287 48.2623 8.39826 48.2705C8.37366 48.2705 8.30805 48.2377 8.25064 48.2049C8.16862 48.1639 8.43927 47.0895 9.41524 43.6367C10.1124 41.1517 10.7029 39.0357 10.7357 38.9209C10.7767 38.7405 10.3666 38.2648 7.09423 34.7382C5.06028 32.5484 3.39539 30.7195 3.40359 30.6785C3.40359 30.6375 3.50201 30.5144 3.84647 30.2356L11.0227 37.9367L11.1457 37.502C11.2113 37.2724 11.7444 35.3697 12.3349 33.2783C12.9172 31.1951 13.4011 29.4318 13.4011 29.3662C13.4011 29.3006 13.3355 29.2432 13.2617 29.2432C13.1797 29.2432 11.0473 28.8495 8.52128 28.3739C5.99524 27.8982 3.92028 27.5045 3.90388 27.4963C3.89568 27.4881 3.86287 27.3241 3.84647 27.1272C3.81367 26.8484 3.83007 26.7746 3.95309 26.7418C4.0269 26.7254 7.79956 25.5444 20.5774 21.5503L27.7126 22.9773C31.6411 23.7647 34.8725 24.3716 34.8971 24.3388C34.9299 24.306 35.3891 23.248 35.914 21.985Z" fill="white"/>
<path fill-rule="evenodd" clip-rule="evenodd" d="M37.259 20.7188C37.2836 20.7106 37.9726 21.7358 38.7763 22.9906C39.58 24.2454 40.2608 25.3198 40.269 25.3772C40.2854 25.4264 40.2772 25.4756 40.2444 25.4756C40.2033 25.4756 39.1618 25.2706 37.9234 25.0245C36.6849 24.7703 35.6598 24.5489 35.6516 24.5325C35.6352 24.5079 35.9796 23.6385 36.4143 22.6051C36.849 21.5717 37.2262 20.7188 37.259 20.7188ZM20.5609 22.5231C20.5937 22.5231 21.8978 24.393 23.456 26.6894C25.0225 28.9776 26.3183 30.8968 26.3511 30.9624C26.3839 31.0526 26.3593 31.069 26.2363 31.028C26.1461 31.0034 23.5052 30.4949 20.3723 29.9044C17.2394 29.3139 14.6641 28.8136 14.6559 28.789C14.6395 28.7726 15.9517 27.3537 17.5674 25.6397C19.1749 23.9256 20.5199 22.5231 20.5609 22.5231ZM19.2405 22.7446C19.2733 22.761 18.8632 23.2366 18.3302 23.8107C17.7971 24.393 16.5586 25.7135 15.5745 26.7468C14.1966 28.2067 13.762 28.625 13.6225 28.6086C13.5241 28.6004 11.6706 28.2559 9.50542 27.8458C7.34024 27.4358 5.55233 27.0913 5.52773 27.0667C5.50313 27.0503 5.50313 27.0175 5.52773 27.0093C5.55233 26.9929 8.62787 26.0169 12.3677 24.8441C16.1076 23.6713 19.1995 22.7281 19.2405 22.7446ZM22.9968 22.7692C23.0624 22.7692 25.6704 23.2776 28.787 23.8927C31.9117 24.5161 34.4952 25.0491 34.528 25.082C34.569 25.123 34.2901 25.8775 33.9129 26.7632C33.5356 27.6572 33.1829 28.4691 33.1337 28.5758C33.0763 28.6988 33.0025 28.748 32.9205 28.7152C32.8549 28.6824 30.6241 27.3866 27.9586 25.8283C25.3014 24.27 23.0624 22.9414 22.9968 22.884C22.8901 22.7774 22.8901 22.7692 22.9968 22.7692ZM21.9798 23.1792C22.0208 23.1792 22.5703 23.4745 23.2018 23.8435C23.8333 24.2126 24.8667 24.8195 25.4982 25.1886C26.1297 25.5576 27.1795 26.1727 27.8356 26.5582C28.4917 26.9437 29.8942 27.7638 30.9521 28.3871C32.0101 29.0104 33.4044 29.8306 34.0523 30.2078C34.692 30.5769 35.7418 31.2002 36.3897 31.5775C37.0294 31.9547 38.112 32.5863 38.7845 32.9799C39.4652 33.3818 40.3018 33.8739 40.6626 34.0789C41.0153 34.284 41.3187 34.4808 41.3351 34.5218C41.3515 34.5546 41.3433 34.5792 41.3105 34.5792C41.2695 34.5792 38.1366 33.8329 34.3475 32.9225C30.5503 32.004 27.4255 31.2412 27.4009 31.2166C27.3845 31.192 26.1707 29.4205 24.7027 27.2799C23.2428 25.1394 22.0126 23.3351 21.9798 23.2858C21.9388 23.2284 21.947 23.1792 21.9798 23.1792ZM35.4957 25.246C35.5859 25.2624 36.5783 25.4674 37.7019 25.6889C38.8501 25.9185 39.7195 26.1235 39.7031 26.1727C39.6867 26.222 39.3832 26.3778 39.0223 26.5254C38.6697 26.673 37.8987 26.9929 37.3082 27.2307C36.7259 27.4768 35.7418 27.8786 35.1349 28.1329C34.528 28.3871 34.0031 28.584 33.9703 28.5758C33.9375 28.5594 34.1999 27.8704 34.5526 27.0339C34.897 26.1973 35.2169 25.451 35.2497 25.3608C35.2934 25.2624 35.3754 25.2241 35.4957 25.246ZM41.2039 26.386C41.2285 26.386 41.655 26.468 42.1553 26.5664C42.6638 26.6648 43.0902 26.7632 43.1148 26.7879C43.1395 26.8125 43.2379 28.3789 43.3281 30.2735C43.4265 32.168 43.5003 33.7673 43.5003 33.8247C43.5003 33.8739 43.4101 33.9395 43.2953 33.9641C43.1805 33.9887 42.9836 34.0953 42.5982 34.4152L38.3744 31.9383C36.0534 30.5687 34.1507 29.4205 34.1507 29.3713C34.1507 29.3221 35.7336 28.6332 37.6609 27.8376C39.5882 27.0421 41.1793 26.386 41.2039 26.386ZM43.976 27.567C44.0252 27.6162 45.0832 28.789 46.3216 30.1914C47.5682 31.5857 48.5852 32.7585 48.5852 32.7995C48.5852 32.8323 47.8471 33.226 45.3046 34.4972L45.0422 34.2675C44.8946 34.1445 44.6403 33.9969 44.1974 33.8411L44.0908 31.4053C44.0334 30.0602 43.9596 28.625 43.935 28.2231C43.9022 27.7146 43.9186 27.5096 43.976 27.567ZM14.984 29.6009C15.0824 29.6255 17.6822 30.1176 20.7578 30.6999C23.8415 31.274 26.3593 31.7661 26.3593 31.7907C26.3593 31.8153 25.8016 32.332 25.1209 32.9389C24.432 33.5458 23.6857 34.2183 23.456 34.4234C23.2264 34.6284 22.4309 35.3419 21.6845 36.0063C20.9382 36.6624 20.3149 37.2037 20.2903 37.2037C20.2657 37.2037 19.0355 35.5224 17.5428 33.472C16.0584 31.4135 14.8281 29.6912 14.8199 29.6419C14.8117 29.5927 14.8692 29.5681 14.984 29.6009ZM14.049 29.9044C14.0736 29.9044 15.0742 31.2576 16.2716 32.9143C17.469 34.5628 18.7402 36.3179 19.7572 37.7121L19.4701 37.9746C19.3143 38.114 17.4526 39.7789 15.3284 41.6652C13.2125 43.5516 11.3425 45.2082 11.1867 45.3559C11.0309 45.4953 10.5388 45.93 10.1041 46.3318C9.66125 46.7255 9.27578 47.0372 9.25118 47.0208C9.22657 47.0126 10.2846 43.1579 11.605 38.4503C12.9254 33.7509 14.0244 29.9044 14.049 29.9044ZM27.1221 32.127C27.1549 32.1188 28.9346 34.694 31.0752 37.8434C33.2239 40.9845 34.9708 43.568 34.9544 43.568C34.938 43.5762 32.9779 43.9042 30.5831 44.2897C28.1965 44.6752 26.1625 44.995 26.0723 44.995C25.9493 45.0032 25.2686 44.1257 23.3494 41.4684C21.9388 39.5329 20.7742 37.909 20.766 37.8598C20.7496 37.8188 22.1602 36.5065 23.8989 34.9565C25.6376 33.3982 27.0811 32.127 27.1221 32.127ZM29.2298 32.4386C29.2955 32.4386 32.2398 33.1358 35.7664 33.9805C42.1553 35.5142 42.1881 35.5224 42.1881 35.7274C42.1881 35.8422 42.2373 36.0637 42.3029 36.2195C42.3685 36.3753 42.4997 36.605 42.59 36.728C42.6884 36.8592 42.918 37.0396 43.1148 37.138C43.3773 37.2775 43.5905 37.3185 43.9924 37.3103C44.5255 37.3021 44.5255 37.3103 44.6977 37.6055C44.7879 37.7696 45.3702 38.7701 45.9935 39.8281C46.6169 40.8861 47.1992 41.8867 47.2894 42.0425C47.3878 42.1983 47.8307 42.9529 48.2735 43.7238C48.7246 44.4947 49.2167 45.3313 49.3725 45.5855C49.5284 45.848 49.6432 46.0858 49.635 46.1104C49.6186 46.135 49.3151 46.1022 48.2981 45.93L38.7845 39.2622C33.552 35.588 29.238 32.5535 29.1888 32.5206C29.1396 32.4714 29.1478 32.4468 29.2298 32.4386ZM28.7788 33.1029C28.8034 33.1029 29.8285 33.8165 31.0588 34.6776C32.289 35.547 36.2339 38.3273 39.8261 40.8533C43.4265 43.3793 46.3462 45.4625 46.3298 45.4871C46.3134 45.5117 43.9432 45.077 41.0645 44.5193C38.1858 43.9698 35.8074 43.4859 35.7828 43.4531C35.75 43.4203 34.1507 41.0993 32.2316 38.2862C30.3124 35.4814 28.7378 33.1686 28.7378 33.144C28.7378 33.1193 28.7542 33.1029 28.7788 33.1029ZM48.8148 33.5212C48.8887 33.513 48.9133 33.8985 48.9133 35.1943C48.9133 36.4983 48.8887 36.8674 48.8148 36.8428C48.7574 36.8346 48.0275 36.5886 45.6737 35.8094L45.6491 35.1123L47.1746 34.3168C48.0193 33.8821 48.7574 33.5212 48.8148 33.5212ZM43.8776 34.5792C44.0744 34.5792 44.3533 34.6448 44.4845 34.7268C44.6239 34.8006 44.7879 34.9893 44.8536 35.1369C44.9192 35.2763 44.9766 35.4978 44.9766 35.629C44.9766 35.752 44.9028 35.9734 44.8125 36.1211C44.7223 36.2605 44.5419 36.4409 44.4025 36.5065C44.2713 36.5721 44.0498 36.6296 43.9104 36.6296C43.7792 36.6296 43.5659 36.5804 43.4429 36.5147C43.3117 36.4573 43.1559 36.3179 43.082 36.2113C43.0082 36.1047 42.9262 35.9242 42.9016 35.8094C42.8688 35.6946 42.8852 35.465 42.9262 35.3009C42.9754 35.1205 43.1149 34.9073 43.2625 34.7842C43.4429 34.6366 43.6151 34.5792 43.8776 34.5792ZM45.5097 36.4983C45.5507 36.5147 46.3626 36.7772 49.0117 37.6547L49.6842 38.4339C50.0451 38.8603 50.7012 39.6067 51.1276 40.107C51.5541 40.599 52.0544 41.1731 52.2348 41.3864C52.4153 41.5996 52.8745 42.1409 53.26 42.5838C53.6455 43.0267 54.0063 43.4613 54.0638 43.5434C54.154 43.6664 53.9817 43.8058 52.4235 44.8884C51.4639 45.5445 50.6356 46.094 50.5781 46.094C50.5207 46.1022 49.3151 44.1093 47.8881 41.6734C46.4528 39.2376 45.2472 37.1709 45.2062 37.0806C45.1406 36.9576 45.157 36.8674 45.2718 36.6952C45.362 36.5721 45.4687 36.4819 45.5097 36.4983ZM20.1427 38.2862L20.5773 38.8767C20.8152 39.1966 21.9306 40.7303 23.0624 42.2885C24.7273 44.5849 25.0881 45.1262 24.9815 45.1754C24.8995 45.2082 21.5041 45.7741 17.4198 46.4303C13.3355 47.0864 9.9401 47.6195 9.86628 47.6031C9.78427 47.5867 11.7198 45.807 14.943 42.9365L20.1427 38.2862ZM34.5362 44.3471C34.5854 44.3389 34.6346 44.3717 34.6346 44.4127C34.6346 44.4619 32.1577 47.6441 29.1314 51.4905C26.1051 55.337 23.5873 58.4946 23.5381 58.5192C23.4724 58.541 23.4588 58.4864 23.497 58.3551C23.5217 58.2403 24.1122 55.3698 24.7929 51.958C25.4818 48.5544 26.0477 45.7577 26.0559 45.7495C26.0559 45.7413 27.9504 45.4215 30.2468 45.0442C32.5514 44.6588 34.4788 44.3471 34.5362 44.3471Z" fill="#1F211F"/>
</svg>
