<svg width="62" height="62" viewBox="0 0 62 62" fill="none" xmlns="http://www.w3.org/2000/svg">
<path d="M31 62C48.1208 62 62 48.1208 62 31C62 13.8792 48.1208 0 31 0C13.8792 0 0 13.8792 0 31C0 48.1208 13.8792 62 31 62Z" fill="#FCFF52"/>
<path d="M46.8466 15.0547H15.053V46.8483H46.8466V35.7379H41.5642C39.7538 39.7803 35.6618 42.6075 30.9746 42.6075C24.5266 42.6075 19.2938 37.3251 19.2938 30.9267C19.2938 24.5035 24.5266 19.2707 30.9746 19.2707C35.761 19.2707 39.853 22.1723 41.6634 26.3139H46.8466V15.0547Z" fill="black"/>
</svg>
