<svg width="59" height="59" viewBox="0 0 59 59" fill="none" xmlns="http://www.w3.org/2000/svg">
<path d="M29.5 59C45.7924 59 59 45.7924 59 29.5C59 13.2076 45.7924 0 29.5 0C13.2076 0 0 13.2076 0 29.5C0 45.7924 13.2076 59 29.5 59Z" fill="#FF1256"/>
<path d="M20.01 17.7149L26.4927 13.7127C27.0633 13.3905 27.0633 12.7228 26.6519 12.3152L21.2367 7.07861C21.1319 6.9738 20.9572 6.9738 20.8524 7.07861L20.34 7.59489C19.684 8.25481 19.6878 9.31843 20.3478 9.97446L22.4634 11.927C22.8244 12.2842 22.7545 12.882 22.3236 13.1498L19.7965 14.6987C19.0085 15.1839 18.764 16.2204 19.2531 17.0084L19.6335 17.6256C19.7111 17.7537 19.8819 17.7925 20.01 17.7149Z" fill="white"/>
<path d="M26.2666 39.1835C26.7984 36.8815 26.1696 34.4632 24.578 32.7124L20.4827 28.0698C18.2041 25.4845 18.7669 21.4784 21.6705 19.6229L28.3706 15.3412C28.8015 15.0656 29.3682 15.1161 29.7448 15.4615C32.1942 17.7208 40.7226 25.8649 40.3422 34.2768C40.3422 34.2768 40.3538 47.3392 27.4894 52.2265C25.599 52.9446 23.6852 51.2172 24.1821 49.2569C25.96 42.2152 26.2705 39.1796 26.2705 39.1796L26.2666 39.1835ZM27.9436 19.0716C26.9188 19.7199 24.9352 20.9776 23.2427 22.0529C22.1092 22.771 21.8802 24.3277 22.7575 25.3447L27.0391 30.2941C29.4924 32.9919 30.4668 36.7185 29.6438 40.2743L28.9257 43.4224C28.6151 44.7889 30.2261 45.7438 31.2897 44.8277C35.8004 40.9342 42.124 31.5751 28.9335 19.1687C28.6656 18.9164 28.258 18.8776 27.9436 19.0755V19.0716Z" fill="white"/>
</svg>
