<svg width="67" height="67" viewBox="0 0 67 67" fill="none" xmlns="http://www.w3.org/2000/svg">
<path d="M33.5 67C52.0015 67 67 52.0015 67 33.5C67 14.9985 52.0015 0 33.5 0C14.9985 0 0 14.9985 0 33.5C0 52.0015 14.9985 67 33.5 67Z" fill="url(#paint0_linear_15333_11906)"/>
<path d="M33.5 63.7583C50.2111 63.7583 63.7581 50.2113 63.7581 33.5003C63.7581 16.7892 50.2111 3.24219 33.5 3.24219C16.7889 3.24219 3.24194 16.7892 3.24194 33.5003C3.24194 50.2113 16.7889 63.7583 33.5 63.7583Z" fill="black"/>
<path d="M28.0273 20.1016C28.0273 20.1016 26.5666 21.5623 24.839 23.2899L17.9147 30.1581C15.0915 33.0374 16.2011 35.9728 18.1675 37.9392L23.8418 43.5854C24.3474 44.0911 26.3138 46.1557 27.8869 44.5405C28.7998 43.6276 28.5892 42.223 28.0835 41.6612L21.5665 35.2003C20.4007 34.0346 20.9625 32.9812 22.1283 31.8716L27.6762 26.3096L31.1595 29.7929C32.3674 31.0008 33.8843 31.4643 35.1483 30.2002C36.4124 28.9361 35.654 27.7282 34.4461 26.5063L30.6117 22.6719L28.0273 20.1016Z" fill="white"/>
<path d="M28.3363 20.3572C27.4233 19.4442 26.1171 18.9386 24.853 20.2027C23.5889 21.4667 24.2491 22.8853 25.0496 23.6859" fill="white"/>
<path d="M39.5475 47.0753C39.5475 47.0753 41.0082 45.6146 42.7358 43.887L49.6602 36.9626C52.5395 34.0833 51.4299 31.1479 49.4074 29.1815L43.7471 23.5774C43.2414 23.0718 41.2751 21.0071 39.702 22.6223C38.789 23.5353 38.9997 24.9398 39.5054 25.5016L46.0224 31.9625C47.1882 33.1283 46.6264 34.1817 45.4606 35.2912L39.8986 40.8532L36.4154 37.37C35.2075 36.1621 33.6906 35.6986 32.4265 36.9626C31.1624 38.2267 31.9209 39.4346 33.1288 40.6566L36.9631 44.491L39.5475 47.0753Z" fill="white"/>
<path d="M39.2532 46.8179C40.1661 47.7308 41.4723 48.2786 42.7364 47.0145C44.0005 45.7504 43.3404 44.3318 42.5398 43.5312" fill="white"/>
<defs>
<linearGradient id="paint0_linear_15333_11906" x1="9.72581" y1="52.9516" x2="62.1371" y2="15.129" gradientUnits="userSpaceOnUse">
<stop stop-color="#37B8FA"/>
<stop offset="0.420531" stop-color="#AE07F8"/>
<stop offset="1" stop-color="#E9876A"/>
</linearGradient>
</defs>
</svg>
