<svg width="52" height="52" viewBox="0 0 52 52" fill="none" xmlns="http://www.w3.org/2000/svg">
<path fill-rule="evenodd" clip-rule="evenodd" d="M43.9749 36.4572C40.358 42.6444 33.647 46.8329 25.9847 46.8329C14.5144 46.8329 5.18565 37.5042 5.18565 26.0343C5.18565 14.5636 14.5144 5.23507 25.9847 5.23507C33.6948 5.23507 40.4052 9.42363 43.9749 15.6108L48.4965 12.9932C44.0227 5.23507 35.5984 0 25.9847 0C11.6111 0 -0.00195312 11.613 -0.00195312 25.9864C-0.00195312 40.3599 11.6111 51.9728 25.9847 51.9728C35.5984 51.9728 43.9749 46.7377 48.4965 39.0275L43.9749 36.4572ZM30.5275 23.4172H51.9923V28.558H30.5275C29.6704 30.1282 27.9573 31.1755 26.0533 31.1755C23.1976 31.1755 20.8657 28.8432 20.8657 25.9875C20.8657 23.132 23.1976 20.7998 26.0533 20.7998C27.9573 20.7998 29.6228 21.847 30.5275 23.4172Z" fill="black"/>
</svg>
