<svg width="62" height="62" viewBox="0 0 62 62" fill="none" xmlns="http://www.w3.org/2000/svg">
<path d="M31 62C48.1208 62 62 48.1208 62 31C62 13.8792 48.1208 0 31 0C13.8792 0 0 13.8792 0 31C0 48.1208 13.8792 62 31 62Z" fill="#002D74"/>
<path d="M31.1013 7.88281L11.1689 19.3912V42.4079L31.1013 53.9163L51.0005 42.4079V19.3912L31.1013 7.88281ZM45.0971 38.9919L31.0681 47.0842L17.0724 38.9919V22.8072L31.1013 14.7149L45.0971 22.8072V38.9919Z" fill="white"/>
<path d="M31.1008 53.9163L51 42.4079V19.3912L31.1008 7.88281V14.7149L45.0966 22.8072V39.0251L31.0676 47.1174V53.9163H31.1008Z" fill="white"/>
<path d="M31.0686 7.88281L11.1694 19.3912V42.4079L31.0686 53.9163V47.0842L17.0729 38.9919V22.774L31.0686 14.7149V7.88281Z" fill="white"/>
<path d="M40.388 36.2746L31.1017 41.6474L21.7822 36.2746V25.529L31.1017 20.1562L40.388 25.529L36.5076 27.7843L31.0685 24.6336L25.6626 27.7843V34.0525L31.1017 37.2032L36.5408 34.0525L40.388 36.2746Z" fill="white"/>
</svg>
