<svg width="64" height="65" viewBox="0 0 64 65" fill="none" xmlns="http://www.w3.org/2000/svg">
<path d="M28.794 0.143775C29.3356 0.0902039 29.9069 0.0425849 30.0736 0.0306801C30.2342 0.0187754 31.0318 0.0068706 31.8412 0.000918221C32.6565 -0.00503416 33.71 0.0187754 34.192 0.0485373C34.6801 0.0842515 35.5133 0.167585 36.0549 0.233061C36.5965 0.298537 37.4535 0.42949 37.9594 0.524728C38.4653 0.619966 39.3223 0.810442 39.8639 0.941394C40.4055 1.0783 41.4351 1.38187 42.1553 1.62592C42.8754 1.86401 43.9348 2.25687 44.5061 2.50687C45.0775 2.75092 45.8988 3.12592 46.3214 3.3402C46.7439 3.54854 47.4581 3.92949 47.8985 4.18544C48.3389 4.43544 49.1543 4.94735 49.7138 5.31639C50.2732 5.68544 51.0469 6.23306 51.4397 6.53068C51.8325 6.83425 52.4872 7.36401 52.8979 7.7152C53.3085 8.06044 54.112 8.81639 54.6833 9.39377C55.2547 9.9652 55.9867 10.745 56.3022 11.12C56.6235 11.495 57.1116 12.0962 57.3913 12.4592C57.671 12.8223 58.165 13.5009 58.4864 13.9771C58.8078 14.4533 59.272 15.1735 59.516 15.5842C59.766 15.995 60.1647 16.7152 60.4147 17.1914C60.6647 17.6676 61.0039 18.364 61.1765 18.739C61.3431 19.114 61.611 19.745 61.7657 20.1378C61.9264 20.5307 62.1645 21.1735 62.3013 21.5664C62.4382 21.9592 62.6763 22.7331 62.837 23.2926C62.9917 23.8521 63.2179 24.7569 63.331 25.3164C63.45 25.8759 63.6107 26.7985 63.694 27.37C63.7773 27.9414 63.8785 28.7628 63.9202 29.1854C63.9678 29.6497 63.9975 30.7866 63.9975 32.0128C63.9975 33.2628 63.9618 34.37 63.9202 34.8402C63.8726 35.2628 63.7892 36.0009 63.7238 36.4771C63.6583 36.9533 63.5214 37.739 63.4262 38.2331C63.331 38.7211 63.1405 39.5545 63.0036 40.0783C62.8727 40.6021 62.6227 41.4592 62.4501 41.9831C62.2775 42.5069 61.9859 43.3104 61.8074 43.7688C61.6229 44.2271 61.2896 45.0009 61.0634 45.495C60.8373 45.9831 60.4683 46.7211 60.2481 47.1319C60.0278 47.5426 59.6827 48.1438 59.4862 48.4711C59.2898 48.7985 58.8613 49.4652 58.528 49.9592C58.1948 50.4473 57.6889 51.1616 57.3972 51.5366C57.1056 51.9116 56.57 52.5723 56.201 52.995C55.832 53.4176 55.0226 54.2628 54.4096 54.87C53.7906 55.4771 53.0169 56.1973 52.6895 56.4711C52.3622 56.745 51.6897 57.2688 51.2017 57.6378C50.7077 58.0069 49.9578 58.5366 49.5352 58.8104C49.1127 59.0902 48.3985 59.5247 47.958 59.7866C47.5176 60.0426 46.6189 60.5069 45.9643 60.8283C45.3096 61.1438 44.3871 61.5604 43.911 61.745C43.4348 61.9354 42.5778 62.245 42.0065 62.4354C41.4351 62.6259 40.4174 62.9116 39.7449 63.0783C39.0723 63.245 38.0546 63.4592 37.4833 63.5545C36.9119 63.6557 36.0668 63.7747 35.6085 63.8223C35.1502 63.8759 34.2516 63.9473 33.6147 63.983C32.9303 64.0247 31.9364 64.0307 31.2044 64.0128C30.5199 63.989 29.5498 63.9354 29.0618 63.8878C28.5678 63.8402 27.8596 63.7569 27.4846 63.7092C27.1097 63.6557 26.3836 63.5307 25.8777 63.4354C25.3718 63.3342 24.5267 63.1497 24.0029 63.0128C23.4792 62.8819 22.5805 62.62 22.0092 62.4295C21.4378 62.239 20.551 61.9176 20.0451 61.7152C19.5393 61.5128 18.5334 61.0545 17.8133 60.7033C17.0932 60.3461 16.1409 59.8342 15.7005 59.5723C15.2601 59.3045 14.6054 58.8938 14.2424 58.6557C13.8793 58.4116 13.2365 57.9533 12.814 57.6378C12.3855 57.3164 11.7308 56.7985 11.3558 56.4831C10.9809 56.1735 10.1179 55.364 9.44538 54.6914C8.77286 54.0188 7.9932 53.2033 7.71347 52.8759C7.43375 52.5485 6.92787 51.9176 6.58863 51.4771C6.24939 51.0366 5.68399 50.245 5.33284 49.7211C4.98765 49.1973 4.49367 48.4057 4.2437 47.9652C3.98779 47.5247 3.60093 46.7985 3.38073 46.3581C3.16052 45.9176 2.80937 45.1676 2.60702 44.6914C2.39872 44.2152 2.08923 43.4414 1.91664 42.9652C1.74404 42.489 1.50598 41.7807 1.38695 41.3878C1.26792 40.995 1.05366 40.1914 0.90487 39.6021C0.762032 39.0128 0.56563 38.0604 0.470405 37.489C0.369228 36.9176 0.250196 36.0842 0.202584 35.6438C0.14902 35.2033 0.0776007 34.3164 0.0418912 33.6795C0.00023016 33.0128 -0.011673 31.9771 0.0121333 31.239C0.029988 30.5366 0.0895038 29.5188 0.137116 28.9771C0.190681 28.4354 0.285906 27.6319 0.351373 27.1914C0.416841 26.7509 0.553727 26.0009 0.648952 25.5247C0.750129 25.0485 0.922725 24.2985 1.0358 23.8581C1.14888 23.4176 1.3929 22.6021 1.5774 22.0426C1.75595 21.4831 2.05948 20.6438 2.24993 20.1676C2.44038 19.6914 2.76176 18.9414 2.96412 18.5009C3.17242 18.0604 3.52356 17.3462 3.74972 16.9235C3.98184 16.5009 4.30322 15.9235 4.46986 15.6438C4.63651 15.364 4.99956 14.7926 5.27928 14.364C5.559 13.9354 6.05894 13.2271 6.39222 12.7866C6.72551 12.3462 7.17783 11.7688 7.39804 11.5069C7.61825 11.245 8.11818 10.6735 8.51694 10.2331C8.91569 9.79854 9.60608 9.10211 10.0465 8.69139C10.4869 8.28068 11.1594 7.68544 11.5344 7.37592C11.9093 7.06044 12.57 6.54854 12.9925 6.23306C13.421 5.91758 14.1114 5.42949 14.5399 5.15568C14.9684 4.87592 15.6767 4.44139 16.1171 4.18544C16.5575 3.93544 17.4026 3.49497 17.9918 3.2033C18.5811 2.91758 19.4619 2.51877 19.9559 2.32235C20.4439 2.12592 21.1998 1.84616 21.6223 1.69735C22.0449 1.55449 22.7472 1.33425 23.1697 1.20925C23.5923 1.0902 24.3303 0.899728 24.8064 0.792585C25.2825 0.679489 26.1515 0.512823 26.7407 0.411632C27.3299 0.316394 28.2524 0.191394 28.794 0.143775Z" fill="white"/>
<g clip-path="url(#clip0_14281_10891)">
<path d="M31.9984 7L31.6504 8.12802V40.8606L31.9984 41.1918L47.9322 32.2107L31.9984 7Z" fill="#343434"/>
<path d="M31.6537 7L17 32.2106L31.6537 41.1918V25.3045V7Z" fill="#8C8C8C"/>
<path d="M31.8482 45.1788L31.6504 45.4042V56.931L31.8482 57.4711L47.9322 36.3047L31.8482 45.1788Z" fill="#3C3C3B"/>
<path d="M31.6537 57.4711V45.1788L17 36.3047L31.6537 57.4711Z" fill="#8C8C8C"/>
<path d="M31.6504 41.1881L46.304 31.9839L31.6504 24.9062V41.1881Z" fill="#141414"/>
<path d="M17 31.9839L31.6537 41.1881V24.9062L17 31.9839Z" fill="#393939"/>
</g>
<defs>
<clipPath id="clip0_14281_10891">
<rect x="17" y="7" width="30.9355" height="50.4737" fill="white"/>
</clipPath>
</defs>
</svg>
